<?xml version="1.0" encoding="utf-8"?>
<!-- Generator: Adobe Illustrator 22.0.0, SVG Export Plug-In . SVG Version: 6.00 Build 0)  -->
<svg version="1.1" id="Capa_1" xmlns="http://www.w3.org/2000/svg" xmlns:xlink="http://www.w3.org/1999/xlink" x="0px" y="0px"
	 viewBox="0 0 136.2 107.4" style="enable-background:new 0 0 136.2 107.4;" xml:space="preserve">
<style type="text/css">
	.st0{fill:#DAA621;}
	.st1{fill:#FFFFFF;}
</style>
<g>
	<path class="st0" d="M122.6,0L13.4,8.5C6,8.5,0,14.5,0,21.9l8.5,53.5c0,7.4,6,13.4,13.4,13.4l5.2,0.3h0c0,0,3.1,11.5-2.9,17.5
		c0,0,17.9-4.3,20.8-16.4l69.2,4.3c7.4,0,13.4-6,13.4-13.4l8.5-67.7C136,6,130,0,122.6,0z"/>
	<path class="st0" d="M135.8,10.8c-0.2,3.6-0.4,7.3-0.9,10.9c-0.8,7.5-2,15-3.3,22.4c-1.2,6.7-2.6,13.6-5.7,19.7
		c-5.1,10.3-16.2,14.1-26.9,15.7c-11.2,1.7-22.5,1.1-33.8,1.8c-6.2,0.4-12.5,0.8-18.7,0.6c-5.4-0.2-11.4-0.7-16.2-3.5
		c-9.2-5.4-10.6-18.7-11.9-28.1c-1.4-10.8-4.2-24.8,3.3-34.1c3.5-4.3,7.9-6.2,13-8c1.7-0.6,3.8-1.2,5.9-1.9L13.4,8.5
		C6,8.5,0,14.5,0,21.9l8.5,53.5c0,7.4,6,13.4,13.4,13.4l5.2,0.3h0c0,0,3.1,11.5-2.9,17.5c0,0,17.9-4.3,20.8-16.4l69.2,4.3
		c7.4,0,13.4-6,13.4-13.4l8.5-67.7C136,12.5,135.9,11.7,135.8,10.8z"/>
	<g>
		<path class="st1" d="M109.4,35.6c0,1.5-1.2,2.8-2.8,2.8H29.3c-1.5,0-2.8-1.2-2.8-2.8l0,0c0-1.5,1.2-2.8,2.8-2.8h77.3
			C108.2,32.9,109.4,34.1,109.4,35.6L109.4,35.6z"/>
		<path class="st1" d="M109.4,47.2c0,1.5-1.2,2.8-2.8,2.8H29.3c-1.5,0-2.8-1.2-2.8-2.8l0,0c0-1.5,1.2-2.8,2.8-2.8h77.3
			C108.2,44.5,109.4,45.7,109.4,47.2L109.4,47.2z"/>
		<path class="st1" d="M75.5,58.8c0,1.5-0.7,2.8-1.6,2.8H28.2c-0.9,0-1.6-1.2-1.6-2.8l0,0c0-1.5,0.7-2.8,1.6-2.8h45.7
			C74.8,56.1,75.5,57.3,75.5,58.8L75.5,58.8z"/>
	</g>
</g>
</svg>
