<?xml version="1.0" encoding="utf-8"?>
<!-- Generator: Adobe Illustrator 22.0.0, SVG Export Plug-In . SVG Version: 6.00 Build 0)  -->
<svg version="1.1" id="Livello_1" xmlns="http://www.w3.org/2000/svg" xmlns:xlink="http://www.w3.org/1999/xlink" x="0px" y="0px"
	 viewBox="0 0 200 163.7" style="enable-background:new 0 0 200 163.7;" xml:space="preserve">
<style type="text/css">
	.st0{fill:#333333;}
	.st1{fill:#FFFFFF;}
</style>
<path class="st0" d="M100,0C44.8,0,0,32.6,0,72.8c0,19.5,10.5,37.1,27.6,50.2l-14.4,40.7l48.4-23.6c11.8,3.6,24.8,5.6,38.5,5.6
	c55.2,0,100-32.6,100-72.8C200,32.6,155.2,0,100,0z"/>
<g>
	<path class="st1" d="M123.4,115.9l-0.8,0.2c-7.9,2.4-16.3,3.6-25,3.6c-35.6,0-64.5-20.8-64.5-46.4c0-25.6,28.9-46.4,64.5-46.4
		s64.5,20.8,64.5,46.4c0,11.8-6.2,23.1-17.5,31.8l-1.2,0.9l8.4,23.8L123.4,115.9z"/>
	<path d="M97.6,28.9c34.4,0,62.5,19.9,62.5,44.4c0,11.2-5.9,21.9-16.7,30.1l-2.3,1.8l1,2.8l6.3,17.7L125,114.4l-1.4-0.7l-1.5,0.5
		c-7.7,2.4-16,3.5-24.4,3.5c-34.4,0-62.5-19.9-62.5-44.4S63.2,28.9,97.6,28.9 M97.6,24.9c-36.7,0-66.5,21.7-66.5,48.4
		c0,26.8,29.8,48.4,66.5,48.4c9.1,0,17.7-1.3,25.6-3.7l32.2,15.7l-9.6-27.1c11.3-8.7,18.3-20.4,18.3-33.4
		C164.1,46.6,134.3,24.9,97.6,24.9L97.6,24.9z"/>
</g>
<circle class="st0" cx="72" cy="73.8" r="7.1"/>
<circle class="st0" cx="97.6" cy="73.8" r="7.1"/>
<circle class="st0" cx="123.2" cy="73.8" r="7.1"/>
</svg>
