<?xml version="1.0" encoding="utf-8"?>
<!-- Generator: Adobe Illustrator 22.0.0, SVG Export Plug-In . SVG Version: 6.00 Build 0)  -->
<svg version="1.1" id="Capa_1" xmlns="http://www.w3.org/2000/svg" xmlns:xlink="http://www.w3.org/1999/xlink" x="0px" y="0px"
	 viewBox="0 0 136.2 107.4" style="enable-background:new 0 0 136.2 107.4;" xml:space="preserve">
<style type="text/css">
	.st0{fill:#FFFFFF;}
</style>
<g>
	<path class="st0" d="M122.6,0L13.4,8.5C6,8.5,0,14.5,0,21.9l8.5,53.5c0,7.4,6,13.4,13.4,13.4l5.2,0.3c0,0,3.1,11.5-2.9,17.5
		c0,0,17.9-4.3,20.8-16.4l69.2,4.3c7.4,0,13.4-6,13.4-13.4l8.5-67.7C136,6,130,0,122.6,0z M73.9,61.6H28.2c-0.9,0-1.6-1.2-1.6-2.8
		c0-1.5,0.7-2.8,1.6-2.8h45.7c0.9,0.1,1.6,1.3,1.6,2.8S74.8,61.6,73.9,61.6z M106.6,50H29.3c-1.5,0-2.8-1.2-2.8-2.8
		c0-1.5,1.2-2.8,2.8-2.8h77.3c1.6,0.1,2.8,1.3,2.8,2.8S108.2,50,106.6,50z M106.6,38.4H29.3c-1.5,0-2.8-1.2-2.8-2.8
		c0-1.5,1.2-2.8,2.8-2.8h77.3c1.6,0.1,2.8,1.3,2.8,2.8S108.2,38.4,106.6,38.4z"/>
</g>
</svg>
