<?xml version="1.0" encoding="utf-8"?>
<!-- Generator: Adobe Illustrator 22.0.0, SVG Export Plug-In . SVG Version: 6.00 Build 0)  -->
<svg version="1.1" xmlns="http://www.w3.org/2000/svg" xmlns:xlink="http://www.w3.org/1999/xlink" x="0px" y="0px"
	 viewBox="0 0 496 463" style="enable-background:new 0 0 496 463;" xml:space="preserve">
<style type="text/css">
	.st0{opacity:0.1;fill-rule:evenodd;clip-rule:evenodd;fill:url(#SVGID_1_);}
	.st1{fill:#333333;}
</style>
<g id="_x31_8">
	<path class="st1" d="M327,286.5c1.1-3.7,1.7-7.7,1.7-11.8c0-22.9-18.5-41.5-41.4-41.5c-18.7,0-34.5,12.3-39.7,29.4
		c-0.9-2-1.9-3.7-3-5.4c-6.6-14.1-20.9-24-37.6-24c-22.9,0-41.5,18.6-41.5,41.5c0,4.2,0.7,8.2,1.8,12c4.6,27.4,53,64.6,81.4,94.3
		c0-0.1,0-0.1,0.1-0.2C279.3,343.3,324.2,313.4,327,286.5L327,286.5z M488.2,198.6L261.9,4c-8.5-7.3-21-7.3-29.5,0L6,198.6
		c-9.5,8.2-10.6,22.5-2.4,32c8.2,9.5,22.5,10.6,32,2.4l211.5-182l211.5,182c4.3,3.6,9.5,5.4,14.8,5.4c6.3,0,12.7-2.6,17.2-7.8
		C498.6,221,497.6,206.7,488.2,198.6L488.2,198.6z M254.5,82.7c-4.3-3.6-10.6-3.6-14.8,0L69.1,229.9c-2.5,2.1-4,5.2-4,8.5v212.8
		c0,6.3,5.1,11.3,11.4,11.3h341.1c6.2,0,11.2-5.1,11.2-11.3V238.3c0-3.3-1.4-6.4-3.9-8.5L254.5,82.7z M406.3,439.7H87.9V243.5
		l159.2-137.3l159.2,137.3V439.7z"/>
</g>
<g id="Layer_1">
</g>
</svg>
