<?xml version="1.0" encoding="utf-8"?>
<!-- Generator: Adobe Illustrator 22.0.0, SVG Export Plug-In . SVG Version: 6.00 Build 0)  -->
<svg version="1.1" xmlns="http://www.w3.org/2000/svg" xmlns:xlink="http://www.w3.org/1999/xlink" x="0px" y="0px"
	 viewBox="0 0 184.2 200" style="enable-background:new 0 0 184.2 200;" xml:space="preserve">
<style type="text/css">
	.st0{fill:#FFFFFF;}
	.st1{fill:#0E2021;}
	.st2{fill:#162729;}
	.st3{fill:#C3A452;}
	.st4{fill:#253334;}
	.st5{fill:#DFDBAF;}
	.st6{fill:#75763C;}
	.st7{fill:#C2A351;}
	.st8{fill:#E0DCAF;}
	.st9{fill:#E3DFB1;}
	.st10{fill:#0F2123;}
	.st11{fill:#152628;}
	.st12{fill:#0D1F20;}
	.st13{fill:#C3A451;}
	.st14{fill:#F8D851;}
	.st15{fill:#C3A350;}
	.st16{fill:#C3A450;}
	.st17{fill:#F6D651;}
	.st18{fill:#F4D651;}
	.st19{fill:#EFF2EF;}
	.st20{fill:#EED350;}
	.st21{fill:#D9C952;}
</style>
<g id="Livello_2">
	<polygon class="st0" points="140.3,180.8 169.9,136.4 181.8,88.4 173.1,53.8 144.5,19.8 96.8,-0.3 69.2,6.4 30.9,27.5 10.4,51.1 
		4.6,80.6 7.6,118.1 22.4,143 42.2,157.3 41.1,178.3 48.5,181 67.2,178.5 	"/>
</g>
<g id="Livello_1">
	<g>
		<g>
			<path class="st1" d="M98.8-0.3c13,0.9,25.4,4.2,36.8,10.4c26.2,14.3,42.3,36,48.1,65.3c0.6,3.1,0.9,6.2,1.3,9.3
				c0,0.6,0,1.1,0,1.7c0,0.3,0,0.6-0.1,1c0.1,0.7,0.2,1.3,0.2,2c0,1.9,0,3.8,0,5.7c-0.1,0.7-0.2,1.3-0.2,2c0,0.4,0,0.8,0,1.2
				c0,0.4,0,0.8,0,1.3c-2,22.5-10.9,41.8-26.7,58c-0.2,0.2-0.3,0.4-0.5,0.6c-1.4,1.3-2.9,2.6-4.2,3.8c0.7,1.7,1.4,3.2,2.1,4.8
				c-3.3-1-6.6-2-10.1-3c13.5-10.1,23.4-22.8,29.7-38.3c6.3-15.6,8-31.7,5.2-48.2c-2.8-16.5-9.8-31.1-20.9-43.6
				C127.1-3.4,71.2-7.2,34.3,25.3C15.9,41.5,5.5,62,4.1,86.5c-1.8,31.9,10.9,57.5,35.8,77.3c-3.3,1-6.5,1.9-9.8,2.9
				c0.6-1.2,1.2-2.4,1.6-3.7c0.1-0.3,0.1-0.9-0.1-1.1c-1.3-1.2-2.7-2.4-4-3.6c-1.5-1.7-3.1-3.3-4.6-5C11.5,140,4.3,124.7,1.3,107.4
				c-0.5-3-0.7-6.1-1.1-9.2c0-0.3,0-0.5,0-0.8c0-0.4,0-0.8,0-1.1c-0.1-0.6-0.1-1.2-0.2-1.7c0-1.6,0-3.1,0-4.7c0.1-0.5,0.1-1,0.2-1.6
				c0-0.4,0-0.9,0-1.3c0-0.3,0-0.7,0-1c1-14.5,5-28.1,12.5-40.5C27.2,21.3,48.3,6.5,75.9,1.1c3.6-0.7,7.3-0.9,10.9-1.4
				c0.7,0,1.4,0,2,0c0.5-0.1,1-0.1,1.6-0.2c1.6,0,3.3,0,4.9,0c0.5,0.1,1,0.1,1.5,0.2c0.3,0,0.6,0,0.9,0C98-0.3,98.4-0.3,98.8-0.3z"
				/>
			<path class="st2" d="M89.6,200c-2.2-1.5-2.8-2.8-2.3-4.7c0.8-2.8,4.1-3.5,6.1-2.6c1,0.4,0.6,1.2-0.3,2.3
				c-0.2-0.4-0.4-0.9-0.7-1.3c-0.9-0.9-1.9-0.7-2.5,0.4c-0.6,1.1-0.6,2.2,0.1,3.3c0.5,0.9,1.3,1.3,2.3,1.1c0.6-0.1,1.1-0.5,1.7-0.7
				c0.1,1.3-1.1,1.5-1.7,2.2C91.4,200,90.5,200,89.6,200z"/>
			<path class="st6" d="M0,94.6c0.1,0.6,0.1,1.2,0.2,1.7c-0.1,0-0.1,0-0.2,0C0,95.7,0,95.1,0,94.6z"/>
			<path class="st7" d="M0.2,87c0,0.4,0,0.9,0,1.3c-0.1,0-0.1,0-0.2,0.1c0-0.5,0-1,0-1.5C0.1,86.9,0.1,86.9,0.2,87z"/>
			<path class="st4" d="M0,88.4c0.1,0,0.1-0.1,0.2-0.1c-0.1,0.5-0.1,1-0.2,1.6C0,89.4,0,88.9,0,88.4z"/>
			<path class="st3" d="M0,96.3c0.1,0,0.1,0,0.2,0c0,0.4,0,0.8,0,1.1c-0.1,0-0.1,0.1-0.2,0.1C0,97.1,0,96.7,0,96.3z"/>
			<path class="st5" d="M0.2,87c-0.1,0-0.1-0.1-0.2-0.1c0-0.3,0-0.7,0-1c0.1,0,0.1,0,0.2,0C0.2,86.3,0.2,86.6,0.2,87z"/>
			<path class="st8" d="M0,97.5c0.1,0,0.1-0.1,0.2-0.1c0,0.3,0,0.5,0,0.8c0,0-0.1,0-0.1,0l-0.1,0C0,98,0,97.8,0,97.5z"/>
			<path class="st3" d="M155.6,166.6c-0.7-1.5-1.3-3.1-2.1-4.8c1.3-1.2,2.7-2.5,4.2-3.8c6.6,1.9,13.1,4.1,19.8,7
				c-1.3,0.4-2.3,0.7-3.2,1.1c-2.9,1.4-5.8,2.9-8.7,4.4c-1,0.5-1.1,1.4-0.9,2.4c0.4,2.5,0.7,5,1.1,7.7c-1.1-0.4-1.9-0.7-2.8-1
				c-3.8-1.3-7.7-2.6-11.5-3.9c-1-0.4-1.5-0.1-1.9,0.8c-1.2,2.6-2.5,5.1-3.7,7.6c-0.5-0.1-0.9-0.3-1.4-0.4c-6.7-2-13.6-3.5-20.5-4.6
				c-8.9-1.4-17.9-2.1-26.9-2.3c-5.6-0.1-11.2,0.1-16.7,0.4c-5.6,0.4-11.3,0.9-16.9,1.7c-6.3,1-12.5,2.5-18.8,3.8
				c-1.6,0.3-3.3,0.7-4.9,1.1c-1.2-2.5-2.5-5.1-3.7-7.6c-0.3-0.7-0.8-0.9-1.6-0.6c-4.3,1.5-8.7,3-13,4.5c-0.4,0.1-0.8,0.3-1.5,0.5
				c0.3-2.2,0.5-4.3,0.9-6.3c0.5-3.2,0.6-3.4-2.3-4.9c-3-1.6-6.1-2.7-9.2-4.1c-0.3-0.1-0.5-0.2-1.1-0.4c1.4-0.6,2.5-1.1,3.6-1.5
				c5-1.7,10-3.4,15-5.1c0.3-0.1,0.6-0.1,0.8-0.2c1.3,1.2,2.7,2.4,4,3.6c0.2,0.2,0.3,0.8,0.1,1.1c-0.5,1.2-1.1,2.4-1.6,3.7
				c-0.3,0.1-0.6,0.3-1,0.4c0.5,0.9,1.1,1.1,2,0.8c4.4-1.2,8.7-2.5,13.1-3.6c2.4-0.6,4.9-0.9,7.3-1.3c-0.1,1.7,0.3,3.2,1.7,4.3
				c0,0.2,0,0.4,0,0.6c1.1,0,1.1,0.8,1.2,1.6c0.2,1.3,0.5,2.5,0.7,3.7c0.2,1.1,0.8,2.2-0.8,2.9c0.1,0.1,0.2,0.1,0.3,0.2
				c1.3-0.3,2.6-0.5,3.7-0.8c-0.4-0.7-0.9-1.2-1-1.7c-0.3-1.3-0.5-2.7-0.8-4c-0.2-1.1-0.6-2.2,0.7-3.1c-0.5,0-0.9-0.1-1.2-0.1
				c0.3-0.9,0.5-1.8,0.8-2.7c0.2-0.7,0.4-1.5,0.6-2.2c3.8-0.4,7.5-1,11.3-1.3c5-0.4,10-0.7,15-1c-0.2,1.1-0.5,2.1,0.7,3
				c2,1.4,6.4,0.8,7.9-1.1c0.4-0.5,2.2-0.6,2.5-0.1c1,1.9,2.8,1.8,4.5,1.8c2.8,0,3.4-1,2.4-3.6c3.9,0.2,7.9,0.1,11.8,0.5
				c6.1,0.6,12.1,1.5,18.1,2.4c7.8,1.1,15.4,3,22.8,5.4c1,0.3,1.5,0.1,1.9-0.9C156.2,166.8,155.9,166.7,155.6,166.6z M63.8,167.8
				c0.6,0.5,0.8,0.7,1.1,0.9c1.7,1.6,3.4,3.3,5,4.9c0.2,0.2,0.6,0.3,0.9,0.4c0.1-0.3,0.3-0.7,0.3-1c-0.2-1.6-0.4-3.1-0.6-4.6
				c-0.2-1.2-0.6-2.6,0.7-3.7c-1.1,0.1-2.2,0.3-3.5,0.4c0.6,0.5,1.4,0.7,1.5,1.1c0.4,1.4,0.5,2.8,0.8,4.3c-0.1,0.1-0.2,0.1-0.3,0.2
				c-1.5-1.4-3-2.8-4.4-4.2c-0.9-0.9-2.4-1.1-3.7-0.2c1.3,0.1,1.4,0.9,1.5,1.9c0.1,1.2,0.3,2.4,0.4,3.5c0.1,1.1,0.5,2.3-0.7,3.2
				c1.1-0.1,2.2-0.3,3.3-0.4c-0.6-0.5-1.3-0.9-1.4-1.3C64.2,171.5,64,169.8,63.8,167.8z M94,163.9c-2.4,0-4.6,0-6.8,0
				c1.2,0.5,1,1.6,1,2.5c0,1.2,0,2.5,0,3.7c0,1,0.4,2.3-1.3,2.6c0.5,0.1,0.9,0.2,1.3,0.2c1.6,0,3.2,0,4.8,0c1.6,0,2-0.6,1.6-2.4
				c-0.2,0.3-0.4,0.4-0.6,0.6c-0.7,1-2,1.4-3,1c-1-0.4-0.6-1.3-0.7-2c0-0.2,0-0.3,0-0.5c0.1-0.3,0.3-0.9,0.4-1
				c0.5,0,1.1,0.1,1.6,0.3c0.2,0.1,0.3,0.5,0.6,0.9c0-1.2,0-2.1,0-3.1c-0.6,1.2-1.6,1.1-2.6,0.9c0-0.9-0.1-1.7-0.1-2.5
				c0-0.2,0.2-0.5,0.3-0.6c0.8-0.4,2.3,0.1,2.8,0.9c0.1,0.2,0.3,0.4,0.5,0.6c0.1,0,0.2-0.1,0.3-0.1C94.1,165.2,94,164.6,94,163.9z
				 M132.1,171c-0.1,0-0.2-0.1-0.3-0.1c-0.1-0.4-0.1-0.8-0.2-1.2c-0.3-1.2-0.9-2-2.1-2.4c-1.2-0.3-2.2,0.1-2.9,1
				c-1.3,1.8-1.8,3.8-1,5.9c0.8,2.1,3.4,2.6,4.7,0.7C131.1,173.8,131.5,172.3,132.1,171z M142.7,169.8c0-0.1,0-0.3,0-0.4
				c-0.7,0-1.3,0-2,0c-3.2,0.2-5.6,3-5.4,6c0.1,1.8,1.9,3.1,3.8,2.8c1.6-0.2,2.8-2,2.4-3.7c-0.2-1.1-2-2.5-3.2-1.3
				c1.2,0.8,1.6,2.1,0.9,3.4c-0.2,0.4-0.8,0.9-1,0.9c-0.4-0.1-0.9-0.6-1-1c-0.7-2.7,1.3-5.8,4.1-6.4
				C141.8,170,142.3,169.9,142.7,169.8z M82.6,166.4c0.2-2.4,0.2-2.5-2-2.5c-0.5,0-0.9,0-1.4,0c-2.5,0.3-4.5,2.1-4.6,4.3
				c-0.2,2.5,1.2,4.5,3.7,4.9c1.2,0.2,2.5,0,3.8-0.2c1.3-0.2,1.7-1.2,1.1-2.7c-0.2,0.4-0.4,0.7-0.6,1c-0.5,0.5-1,1.1-1.7,1.3
				c-1.9,0.6-3.5-0.8-4-3.3c-0.4-2.4,0.8-4.5,2.7-4.6c0,0,0.1,0,0.1,0C81.1,164.4,81.9,165.3,82.6,166.4z M44.2,175.9
				c0,1.1,0.2,2.1,1.1,2.3c1.5,0.3,3,0,4.1-1.1c1.2-1.3,0.9-3.3-0.7-4.2c-0.6-0.3-1.4-0.4-2.1-0.8c-0.6-0.4-1.2-0.9-1.6-1.5
				c-0.1-0.1,0.4-0.9,0.7-1.1c0.8-0.5,1.5,0,2.1,0.6c0.2,0.2,0.4,0.3,0.7,0.5c0.1-1.7-0.3-2.2-1.8-2c-0.6,0.1-1.1,0.2-1.6,0.5
				c-1,0.5-1.6,1.2-1.6,2.4c0,1.1,0.7,1.8,1.6,2.3c0.7,0.3,1.4,0.5,2.1,0.7c1.1,0.4,1.6,1.4,1.2,2.2c-0.3,0.8-1.4,1.1-2.5,0.5
				C45.4,176.9,44.9,176.4,44.2,175.9z M114.7,174.4c0,0.2,0.1,0.3,0.1,0.5c0.8-0.2,1.7-0.3,2.5-0.6c2.8-0.9,4.4-3.3,4.2-5.9
				c-0.1-1.3-1-2.4-2.3-2.7c-1.4-0.4-2.7,0.1-3.5,1.3c-0.7,1-0.5,2.5,0.3,3.3c0.8,0.8,1.7,0.7,2.7,0.3c-1.3-0.6-1.6-1.7-1.3-2.8
				c0.1-0.6,0.6-1,1-1.5c0.4,0.5,1.1,1,1.1,1.5c-0.1,1.3-0.3,2.7-0.7,3.9C118,173.4,116.4,174,114.7,174.4z M109.9,173.5
				c0.1-0.1,0.1-0.2,0.2-0.3c-1.6-0.2-1.4-1.2-1.3-2.2c0.2-2,0.3-4.1,0.4-6.3c-1.2,0.3-2.2,0.5-3.2,0.7c0,0.1-0.1,0.2-0.1,0.3
				c1.4,0.2,1.4,1.1,1.3,2.1c-0.1,0.8-0.1,1.6-0.2,2.5c0,0.6,0.1,1.3-0.2,1.8c-0.2,0.5-0.8,0.7-1.4,1.2
				C107,173.3,108.5,173.4,109.9,173.5z"/>
			<path class="st9" d="M39.8,183.9c1.6-0.4,3.3-0.7,4.9-1.1c6.3-1.3,12.5-2.8,18.8-3.8c5.6-0.9,11.2-1.4,16.9-1.7
				c5.6-0.4,11.2-0.5,16.7-0.4c9,0.2,18,0.9,26.9,2.3c6.9,1.1,13.8,2.6,20.5,4.6c0.5,0.1,0.9,0.3,1.4,0.4c0,0.3,0,0.6-0.1,0.9
				c-0.2,0.5-0.4,1.1-0.6,1.6c-2.9-0.8-5.6-1.7-8.5-2.3c-5.5-1.1-11.1-2.1-16.6-3.2c-0.4-0.1-0.9-0.2-1.3-0.3
				c-0.3,0-0.6-0.1-0.9-0.1c-1.3-0.2-2.5-0.4-3.8-0.4c-2.5-0.2-5-0.7-7.5-0.4c-7.5,1-15,1.4-22.5,0.6c-2.3-0.2-4.7-0.7-7-0.7
				c-3.1,0.1-6.1,0.6-9.2,0.9c-0.3,0-0.6,0.3-0.9,0.4c-2.3,0.3-4.7,0.4-7,0.9c-6.3,1.4-12.6,2.9-18.8,4.4c-0.7,0.2-0.9,0-1.1-0.6
				C40.1,185.3,40,184.6,39.8,183.9z"/>
			<path class="st10" d="M67.2,181.2c0.3-0.1,0.6-0.4,0.9-0.4c3.1-0.3,6.1-0.8,9.2-0.9c2.3-0.1,4.6,0.5,7,0.7
				c7.5,0.8,15,0.4,22.5-0.6c2.4-0.3,5,0.2,7.5,0.4c1.3,0.1,2.5,0.3,3.8,0.4c-0.1,0.1-0.1,0.3-0.2,0.4c-11.8,3.3-23.8,4.4-36,2.8
				C76.9,183.4,72.1,182.1,67.2,181.2z"/>
			<path class="st2" d="M77.8,194.9c-0.8,1.3-1.4,2.3-2,3.3c-0.2,0.3-0.6,0.5-0.8,0.8c-0.2-0.3-0.5-0.6-0.6-1
				c-0.6-1.8-1.1-3.6-1.7-5.4c-0.1-0.3-0.3-0.5-0.5-1c-0.8,1.1-1.6,2.1-2.3,3.1c-0.6,0.8-1.2,1.7-1.8,2.5c-0.2,0.2-0.5,0.4-0.8,0.4
				c-0.1,0-0.4-0.4-0.4-0.6c-0.3-1.2-0.5-2.5-0.8-4c-0.9,1.1-1.6,2.1-2.3,3c-0.3,0.3-0.7,0.5-1,0.7c-0.2-0.4-0.4-0.7-0.5-1.1
				c-0.4-1.6-0.7-3.3-1-4.9c-0.1-0.4-0.2-0.8-0.4-1.2c-0.2-0.1-0.3-0.2-0.5-0.3c-0.4,0.6-0.8,1.1-1.2,1.7c-1,1.2-2,2.4-3.1,3.6
				c-0.2,0.2-0.6,0.4-0.7,0.4c-0.2-0.1-0.4-0.5-0.5-0.7c-0.2-1.3-0.3-2.5-0.5-4.1c-1,1.1-1.8,2-2.7,2.9c-0.2,0.2-0.6,0.3-0.9,0.5
				c-0.1-0.3-0.4-0.6-0.4-0.9c-0.2-1.2-0.2-2.4-0.4-3.6c-0.2-1.2-0.5-2.5-0.7-3.9c2.7,0.9,5.7,1.8,8.6,2.7c0,0.1,0,0.2,0,0.4
				c-0.4,0.1-0.7,0.1-1.2,0.3c0.1,1.1,0.1,2.2,0.2,3.7c0.9-1.2,1.6-2,2.2-2.9c-0.3-0.4-0.5-0.7-0.8-1.2c3.8,0.9,7.4,1.7,10.9,2.5
				c0,0.1,0,0.2,0,0.3c-0.3,0.1-0.7,0.3-1.2,0.4c0.2,1.1,0.4,2.2,0.6,3.6c0.7-1.2,1.3-2.1,1.9-3c-0.3-0.3-0.5-0.6-0.9-1.1
				c3.9,0.5,7.5,1,11.1,1.5c0,0.1,0,0.2,0,0.3c-0.3,0.2-0.7,0.3-1.1,0.5c0.3,1.1,0.6,2.1,0.9,3.2c1.4-1.4,1.8-2.8,1-4
				c1,0.1,2.1,0.2,3.4,0.3c-2.5,1.6-3.1,4.1-4.5,6.2c-0.2,0.3-0.5,0.5-0.8,0.8c-0.2-0.3-0.5-0.6-0.6-1
				C78.6,197.4,78.3,196.3,77.8,194.9z M76,195.7c0.2,0,0.4,0,0.5,0.1c0.2-1,0.6-2,0.6-3c0-0.2-1.2-0.5-1.9-0.7
				c-0.1,0.1-0.2,0.2-0.3,0.3C75.4,193.5,75.7,194.6,76,195.7z M52.7,186.5c-0.1,0.1-0.3,0.2-0.4,0.4c0.1,1.1,0.2,2.3,0.4,3.7
				c0.8-1,2.1-1.5,1.7-2.8C54.2,187.2,53.2,186.9,52.7,186.5z M64.2,193.8c0.8-1.1,1.9-1.8,1.4-3c-0.2-0.5-1.2-0.7-1.8-1
				c-0.1,0.1-0.2,0.2-0.3,0.3C63.8,191.3,64,192.4,64.2,193.8z"/>
			<path class="st11" d="M131.5,194.8c-1.8-0.8-1.8-0.9-0.7-2.9c0-0.1-0.1-0.2-0.1-0.2c-1.3-0.3-2.2-1.1-2.3-2.6
				c-0.1-1.3,0.7-2.3,2.1-2.9c0.6-0.2,1.2-0.4,1.8-0.5c1.2-0.2,2.3-0.3,3.6-0.4c0.8,1.1-0.4,1.1-0.6,1.5c-0.2,1.1-0.1,2.4-0.7,3.3
				c-0.6,0.9-1.8,1.3-3,2.1c0.5,0.1,0.9,0.4,1.2,0.3c0.9-0.2,1.8-0.7,2.7-0.9c1.9-0.4,3.2,0.9,2.8,2.9c-0.5,2.3-4.2,4.4-6.4,3.5
				C130.4,197.5,130.3,196.5,131.5,194.8z M134.2,196.9c0.7-0.2,1.1-0.3,1.5-0.5c0.8-0.4,1.3-0.9,0.9-1.9c-0.3-0.8-1-1-1.8-0.8
				c-0.5,0.2-1.1,0.3-1.6,0.5c-0.8,0.3-1,0.9-0.5,1.5C133.1,196.3,133.7,196.6,134.2,196.9z M133.1,189.9c0-1.6-0.9-3.2-1.7-3
				c-0.4,0.1-0.8,0.7-0.9,1.1c-0.2,1.2,0.9,2.7,1.7,2.6C132.7,190.5,133,190,133.1,189.9z"/>
			<path class="st11" d="M100.7,193.3c-0.7,0-1.4,0-2.3,0c0.1,1.8,0.1,3.4,0.3,5c0.1,0.4,0.8,0.7,1.5,1.2c-1.8,0-3.4,0-5,0
				c1.2-0.5,1-1.5,0.9-2.4c0-1.1-0.1-2.3-0.2-3.5c-0.4-0.1-0.8-0.1-1.2-0.1c-0.1-0.1-0.2-0.1-0.3-0.2c1.9-0.6,1.3-2.2,1.6-3.4
				c0.5-2.1,1.9-3.3,3.9-3.2c0.5,0,1.1,0.1,1.3,0.5c0.3,0.4,0.5,1.2,0.3,1.6c-0.4,0.6-1,0.5-1.6,0c-0.4-0.4-0.8-0.8-1.2-1.1
				c-0.8,1.1-0.9,2.3-0.4,4.8c0.7,0,1.4,0,2.2,0C100.7,192.7,100.7,193,100.7,193.3L100.7,193.3z"/>
			<path class="st11" d="M117.3,197.5c-2.2,0-3.7-1.6-3.7-3.8c0-2.2,1.9-4,4.4-4c2.3,0,3.8,1.7,3.8,4.1
				C121.7,196,119.9,197.6,117.3,197.5z M119.6,194.9c-0.5-1.3-0.8-2.4-1.3-3.5c-0.2-0.4-0.9-0.7-1.3-0.6c-0.4,0.1-0.9,0.8-0.9,1.1
				c0.1,1.2,0.4,2.4,0.7,3.6c0.2,0.7,0.9,1.4,1.7,1C119,196.2,119.2,195.5,119.6,194.9z"/>
			<path class="st2" d="M100.7,193.3c0.2-0.1,0.4-0.1,0.6-0.2c0.6-0.4,1.1-0.8,1.8-1.1c2.3-1,3.7-0.1,3.8,2.4c0,0.7,0,1.4,0.1,2.1
				c0.1,1.3,0.4,1.5,1.7,1.3c-0.2,1.1-1.5,1.9-2.6,1.4c-0.9-0.5-1.5-0.2-2.3,0.2c-1.1,0.6-2.4,0.1-2.8-1c-0.3-0.9-0.1-1.6,0.7-2.1
				c0.6-0.3,1.3-0.6,1.9-0.9c1.1-0.5,1.3-1.1,0.7-2.1c-0.2-0.3-0.6-0.5-0.9-0.5c-0.3,0-0.5,0.4-0.7,0.7c-0.1,0.2-0.1,0.6-0.2,0.7
				c-0.5,0.3-1,0.6-1.6,0.8c0-0.4,0-0.9-0.1-1.3C100.9,193.6,100.8,193.5,100.7,193.3C100.7,193.3,100.7,193.3,100.7,193.3z
				 M105,195.9c-1.3,0.3-2,0.6-1.8,1.6c0.1,0.3,0.7,0.5,1,0.8C104.5,197.6,104.7,196.9,105,195.9z"/>
			<path class="st2" d="M125.3,189.8c0.3,1.3,0.7,2.8,1.2,4.2c0.1,0.3,0.9,0.4,1.5,0.9c-1.5,0.4-3.1,0.8-4.6,1.3
				c1-1.6,0.3-5-1.4-6.4c0.8-0.6,1.7-1.3,2.6-2c0.2,0.4,0.3,0.7,0.5,1c0.8-0.5,1.3-2.1,2.6-0.8c0.2,0.2,0.2,1.1,0.1,1.2
				C127,189.4,126.3,189.5,125.3,189.8z"/>
			<path class="st4" d="M174.1,154.8c0,2.2-1.8,3.9-3.9,3.9c-2.1,0-3.8-1.8-3.7-3.9c0-2.2,1.8-3.9,3.9-3.9
				C172.6,151,174.2,152.7,174.1,154.8z M173.4,154.8c0-1.8-1.4-3.2-3.1-3.2c-1.7,0-3.1,1.4-3,3.2c0,1.8,1.4,3.2,3.1,3.2
				C172.1,158,173.4,156.6,173.4,154.8z"/>
			<path class="st2" d="M109.8,197.2c0.1-0.9,0.5-1.4,1.4-1.4c0.9,0,1.5,0.6,1.5,1.5c0,0.9-0.5,1.5-1.4,1.5
				C110.4,198.7,109.9,198.1,109.8,197.2z"/>
			<path class="st11" d="M84.4,199.8c-1-0.1-1.5-0.5-1.6-1.4c0-0.9,0.5-1.5,1.4-1.5c0.9,0,1.5,0.5,1.5,1.4
				C85.8,199.2,85.3,199.7,84.4,199.8z"/>
			<path class="st6" d="M117.8,181.2c0.1-0.1,0.1-0.3,0.2-0.4c0.3,0,0.6,0.1,0.9,0.1C118.5,181,118.2,181.1,117.8,181.2z"/>
			<path class="st8" d="M51.7,163c-2.5,0.4-4.9,0.7-7.3,1.3c-4.4,1.1-8.8,2.3-13.1,3.6c-0.9,0.3-1.5,0.1-2-0.8
				c0.3-0.1,0.6-0.3,1-0.4c3.3-1,6.5-1.9,9.8-2.9C15.1,144,2.4,118.4,4.1,86.5c1.4-24.5,11.7-45,30.2-61.2
				c36.9-32.4,92.8-28.7,125.3,8.2c11,12.6,18.1,27.1,20.9,43.6c2.8,16.5,1.1,32.6-5.2,48.2c-6.3,15.5-16.2,28.2-29.7,38.3
				c3.4,1,6.8,2,10.1,3c0.3,0.1,0.6,0.2,0.9,0.4c-0.4,1-0.9,1.2-1.9,0.9c-7.4-2.4-15-4.3-22.8-5.4c-6-0.9-12.1-1.7-18.1-2.4
				c-3.9-0.4-7.9-0.4-11.8-0.5c-0.1-0.2-0.3-0.3-0.6-0.6c1.9-0.3,3.7-0.8,5.4-0.7c11.8,0.6,23.5,2.1,35.1,4.6
				c0.6,0.1,1.4-0.1,1.9-0.5c28.2-20.3,41.6-56,33.7-89.8c-11.4-49-61.7-78-109.8-63.5C26.1,21.6,0,63.3,7.1,106.1
				c3.9,23.4,15.7,42,34.6,56.2c0.8,0.6,1.6,0.8,2.6,0.5c2.5-0.6,5-1,7.7-1.6C51.9,162,51.8,162.5,51.7,163z"/>
			<path class="st12" d="M51.7,163c0.1-0.5,0.2-1,0.4-1.7c-2.7,0.5-5.2,1-7.7,1.6c-1,0.2-1.8,0.1-2.6-0.5
				C22.8,148.1,11,129.5,7.1,106.1C0,63.3,26.1,21.6,67.6,9.1C115.7-5.5,166,23.6,177.4,72.6c7.9,33.8-5.5,69.5-33.7,89.8
				c-0.5,0.4-1.3,0.6-1.9,0.5c-11.6-2.5-23.3-4-35.1-4.6c-1.7-0.1-3.5,0.5-5.4,0.7c0.3,0.3,0.4,0.5,0.6,0.6c1,2.6,0.4,3.6-2.4,3.6
				c-1.7,0-3.5,0.1-4.5-1.8c-0.3-0.6-2.1-0.5-2.5,0.1c-1.5,1.9-6,2.5-7.9,1.1c-1.2-0.8-0.9-1.9-0.7-3c-0.2-0.2-0.4-0.5-0.6-0.6
				c-1.9-0.3-3.9-0.8-5.8-0.6c-6.1,0.5-12.1,1.2-18.1,1.8c-1.1,0.1-1.6,0.6-1.7,1.6c-0.2,0.7-0.4,1.5-0.6,2.2
				c-0.2,0.9-0.5,1.8-0.8,2.7c-1,0.2-1.9,0.4-2.9,0.6C52,166.1,51.6,164.7,51.7,163z M46.2,130.4c0.1,0.1,0.2,0.2,0.2,0.2
				c0.1,0.1,0.1,0.3,0.2,0.4c0.1,0,0.1-0.1,0.2-0.1c-0.1-0.1-0.3-0.2-0.4-0.3C46.3,130.5,46.3,130.5,46.2,130.4
				C46.2,130.3,46.2,130.3,46.2,130.4c-0.1-0.1-0.1-0.1-0.1-0.1C46.1,130.3,46.1,130.3,46.2,130.4z M44.9,128.9c0,0,0.1,0.1,0.1,0.1
				C45,129,45,128.9,44.9,128.9c0-0.1-0.1-0.2-0.2-0.3c-0.1-0.2-0.2-0.5-0.3-0.7c-0.1,0-0.2,0-0.3,0c-0.2-1.8-0.3-3.6-0.5-5.4
				c0.3-0.9,0.6-1.9,0.8-2.8c0.1-0.5,0-1-0.1-1.5c-0.2-1.3-0.7-2.6-0.7-3.9c0-1.5,1.1-2.2,2.5-1.6c1.1,0.4,2.1,1,3.2,1.5
				c0.4,0.2,0.8,0.4,1.1,0.4c2,0,3.9-0.1,5.9-0.2c0.4-0.2,0.9-0.3,1.3-0.5c1.7-1.2,3.4-2.2,5.6-1.6c0.4,1,0.8,2.1,1.2,3.1
				c-0.3,1.6-0.5,3.2-0.8,4.7c-0.1,0.4,0,0.9,0.1,1.3c0.5,1.2,1.1,2.3,1.6,3.3c3.1-0.3,6.1-0.7,9.1-1c0.2,0,0.6-0.3,0.7-0.5
				c0.9-2.5,1.8-5.1,2.7-7.6c0.6-1.2,1.1-2.4,1.7-3.6c1.2-2.3,2.4-4.6,3.6-6.9c0.1-0.2,0.1-0.4,0.1-0.6c0.2-2.9,1.5-3.7,4.3-2.8
				c0.5,0.2,1.2,0.2,1.8,0.2c2.4,0,4.7,0,7.1,0c0.6,0,1.3,0,1.9-0.1c1.5-0.2,3-0.4,4.3,0.6c0.5,1.9,0.3,3.9,1.3,5.7
				c0.2,0.3,0,0.8,0.1,1.2c0,0.4,0,0.8,0.2,1.2c0.7,1.5,1.5,3,2.2,4.5c0.8,2.6,1.8,5.1,2.5,7.7c0.5,1.8,0.7,3.8,0.9,5.7
				c0.2,2.6-1.2,4.7-2.3,6.9c-0.8,1.6-0.6,2.9,0.1,4.6c0.3-1,0.5-1.8,0.8-2.6c1.5-4.3,4-8,7.1-11.3c1.6-1.7,2.7-3.6,3.4-5.8
				c0.3-0.9,0.6-1.9,0.9-2.8c0.4-0.9,0.4-1.7-0.1-2.5c0-0.1-0.1-0.2-0.1-0.3c0-0.1,0-0.1-0.1-0.1c0-0.1-0.1-0.2-0.1-0.3
				c-0.1-0.7-0.3-1.3-0.4-2c0-0.1,0-0.1,0-0.2c0-1.6,0-3.2-0.7-4.8c-0.5-1.2-0.7-2.7-0.7-4.1c0.1-1.8,1.5-2.4,2.9-1.3
				c1,0.7,1.9,1.7,2.8,2.5c0.3,0.2,0.6,0.5,0.9,0.6c1.5,0.2,3,0.3,4.5,0.5c0.7,0.4,1.2,0.2,1.9-0.3c1.2-0.8,2.4-1.6,3.7-2.1
				c1.7-0.6,2.6,0.4,2.2,2.1c-0.2,0.7-0.5,1.5-0.8,2.2c-1.2,2.4-2.4,4.8-3.6,7.1c-1.7,3-2.1,6.2-1.7,9.6c0,0.2,0.2,0.4,0.2,0.6
				c0.4,1.2,0.7,2.3,1.1,3.5c-0.4,2.6-0.7,5.3-1.1,7.9c-0.4,1-0.2,1.8,0.4,2.6c0.1,0,0.1,0,0.2,0c0.1-0.1,0.3-0.2,0.4-0.3
				c15.5-13.7,22.7-30.8,21.2-51.4c-0.9-12.5-5.5-23.6-13.5-33.1c-2.6-3-4.3-6.3-5.5-10c-0.2-0.6-0.3-1.2-0.5-1.9
				c0.2,0.1,0.4,0.2,0.6,0.4c14.1,12,22.3,27.2,23.5,45.6c1.4,21.9-6.6,40-23.1,54.4c-1.5,1.3-1.5,1.3-0.8,3.3
				c0.2-0.2,0.4-0.3,0.6-0.4c18.9-15.7,27.6-35.8,25.1-60.2c-1.9-19.2-11.2-34.5-26.3-46.2c-0.3-0.2-0.7-0.4-1-0.6c0,0,0,0,0,0
				c-0.1-0.1-0.2-0.2-0.2-0.3c-0.7-2.4-2.1-3.7-4.7-3.5c-0.4,0-0.8-0.2-1.2-0.3c-14.1-7.9-29-10.5-44.9-7.7
				c-30.4,5.4-53.2,30.7-55.3,61.4c-1.2,18.4,4.3,34.6,16.3,48.7c1,1.2,2.1,2.3,3.3,3.7c-0.2-3.3-0.2-3.3-1-4.2
				c-11.8-13.5-17.4-29.1-16.5-47c0.7-13.9,5.4-26.4,14.3-37.1c14.5-17.5,33.3-25.6,56-24.1c8.6,0.6,16.8,3,24.5,7
				c0,0.1,0,0.1,0.1,0.1c-0.7,1.1-1.4,2.2-2.2,3.4c-0.2-0.1-0.5-0.2-0.9-0.4c-14.6-7-29.7-8.3-45.1-3.5
				C40.4,44.8,23,82.7,37.1,115.7c1.9,4.4,4.1,8.5,7.1,12.2c0.1,0.1,0.2,0.3,0.2,0.4c0.1,0.1,0.1,0.3,0.2,0.4
				C44.7,128.8,44.8,128.8,44.9,128.9z M128.9,115.8c0.1,0.1,0.2,0.2,0.3,0.2c0.2,0.2,0.3,0.3,0.5,0.5c0.3,0.4,0.5,0.7,0.8,1.1
				c0.1-0.1,0.1-0.1,0.2-0.2c-0.3-0.3-0.6-0.6-0.9-1c-0.2-0.2-0.3-0.3-0.5-0.5c-0.1-0.1-0.2-0.2-0.2-0.3c-0.1-0.1-0.2-0.2-0.2-0.3
				c-0.1-0.1-0.2-0.2-0.3-0.2c-0.1-0.1-0.3-0.2-0.4-0.3c-0.1,0-0.1-0.1-0.2-0.1c-0.5-0.3-1-0.6-1.5-0.9c-0.1,0.1-0.1,0.2-0.2,0.3
				c0.5,0.2,1,0.4,1.5,0.7c0,0.1,0,0.2,0.1,0.2c0.1,0.1,0.3,0.2,0.4,0.3c0.1,0.1,0.2,0.2,0.3,0.2
				C128.7,115.7,128.8,115.8,128.9,115.8z M130.6,115.1c0.2,0.1,0.3,0.3,0.5,0.4c0-0.1,0.1-0.1,0.1-0.2
				C131,115.2,130.8,115.1,130.6,115.1c-0.2-0.2-0.5-0.3-0.7-0.5c-0.5-0.3-1.1-0.6-1.6-0.9c-0.1-0.1-0.3-0.2-0.4-0.3
				c0.9,0.2,1.8,0.4,2.6,0.6c0-0.1,0.1-0.1,0.1-0.2c-0.8-0.3-1.5-0.6-2.3-0.9c-0.8-0.2-1.7-0.3-2.3,0.6c0.7,0.1,1.4,0.3,2,0.4
				c0.6,0.3,1.1,0.5,1.7,0.8C130.1,114.8,130.4,114.9,130.6,115.1z M58.9,128c0.2,0,0.4,0.1,0.6,0.1c-0.4,0.6-0.8,1.1-1.2,1.7
				c3.5-0.6,5.1-5.5,2.9-8.2c-0.1,1.2-0.2,2.5-0.3,3.9c-1.3,0-2.7,0-4-0.1c-1.4-0.3-2.6,0.1-3.3,1c-0.6-0.4-1.2-0.7-1.8-1.1
				c0.1-0.1,0.2-0.3,0.2-0.4c0.6,0,1.3-0.1,2-0.1c0.4-1,0.7-2,1.1-3c0.4-1.1,1.1-1.6,2.2-2.1c0.9-0.4,1.7-1.2,2.4-1.9
				c0.2-0.2,0.2-1,0-1.2c-0.7-0.7-0.3-1.2,0.3-1.6c0.9-0.6,1.8-1.1,2.7-1.6c-0.5-0.1-1-0.2-1.4,0c-1,0.5-2,1.1-3,1.6
				c-0.4,0.2-0.9,0.4-1.4,0.5c-2.2,0.2-4.5,0.3-6.7,0.4c-0.6,0-1.2-0.1-1.7-0.4c-1-0.5-2-1.1-3-1.8c-0.6,1.5-0.4,2.8,0.5,3.8
				c0.6,0.7,0.4,1.2,0.3,2c-0.4,1.7-0.6,3.4-0.9,5.1c0,0.1,0,0.1,0,0.2c0,0.1,0,0.2-0.1,0.2c0,0.1,0,0.2,0,0.3c0,0.1,0,0.1,0.1,0.2
				c0.3,0.8,0.7,1.6,1,2.4c0.4,0.5,0.8,1.2,1.4,1.6c1,0.6,0.9,1.3,0.5,2.2c-1.4,2.9-2.2,5.8-0.7,8.9c0.1,0.2,0.1,0.6,0,0.8
				c-1.2,1.5-2.5,3-3.7,4.4c-0.2,0.2-0.7,0.2-1,0.2c-1.3,0.1-2.6,0-3.9,0.2c-1.4,0.2-2.1,1.4-1.6,2.6c1.9-1.5,4.3-0.6,6.4-1.2
				c-0.3,1.3,0,1.5,1.1,1.4c1.6-0.2,3.2-0.6,4.8-0.4c2.5,0.2,3.9-1.3,5.3-2.9c0.6-0.7,0.3-1.3-0.6-1.3c-0.6,0-1.3,0.2-1.8,0.5
				c-0.7,0.4-1.3,1-1.9,1.5c-1.2,0.9-2.5,0.6-3.5,0.7c1.2-1.3,2.4-2.7,3.6-4c0.6-0.6,0.7-1.3,0.6-2.1c-0.2-1.5-0.3-3-0.2-4.5
				c0.4-4.2,0.4-4.2-2.5-7.2c-0.3-0.3-0.7-0.7-1.1-1c-0.2-0.3-0.5-0.5-0.7-0.8l-0.1,0l0.1-0.1c0-1.7,1-0.7,1.7-0.7
				c0.2,0.2,0.5,0.3,0.7,0.5c1,0.6,2.1,0.8,3.1,0.2c0.7-0.4,1.2-0.5,2,0c0.4,0.3,1.2,0.2,1.7,0.1c0.4,0,0.9-0.1,1.3-0.2
				C57.8,127.6,58.4,127.8,58.9,128z M128.8,109.9c-0.4,0.4-0.7,0.8-1.1,1.3c0.4,0.2,0.8,0.7,1.1,0.7c0.4,0,0.8-0.5,1.3-0.7
				c-0.3-0.4-0.6-0.8-1-1.2C129.1,109.9,129,109.9,128.8,109.9z M120.5,110.9c0.2,1.2,0.4,2.4,0.7,3.5c0.7,1.4,0.3,2.7-0.1,4
				c-1.1,3.4-2.3,6.7-5,9.3c-1.3,1.2-2.2,2.8-3.2,4.2c-1.8,2.7-3.1,5.6-3.6,8.8c-0.1,0.6-0.1,1.3,0,1.9c0.3,1.8,0.7,3.6,0.9,5.4
				c0.2,1.6,1.5,3.8,2.8,4.3c0.7,0.2,1.4,0.2,2,0.5c0.6,0.3,1.1,0.8,2,1.5c0.2-1,0.7-1.8,0.6-2.5c-0.1-1.1-0.5-2.2-0.9-3.3
				c-0.7-1.9-1.7-3.8-2.3-5.7c-1.2-3.9-0.3-5.7,2.9-8.4c-0.1,4.4,0.9,8.6,1.9,12.8c0.7,2.9,2,5.6,1.4,8.7c1.4,0.2,1.8-0.3,1.5-1.7
				c-0.9-4.9-1.9-9.8-2.7-14.7c-0.6-3.8-0.2-7.6,0.7-11.3c0.3-1.4,0.9-1.6,2.1-0.7c0.5,0.4,0.9,0.7,1.5,1.2c0.2-0.4,0.3-0.6,0.3-0.9
				c0.1-3.4,0.3-6.8,0.3-10.2c0-0.3-0.2-0.8-0.5-0.9c-1.3-0.5-1.5-1.7-1.9-2.7c-0.2-1.4-0.4-2.9-0.7-4.3c0,0,0-0.1,0-0.1
				c0-0.1,0-0.1-0.1-0.2c0.1-0.3,0.1-0.6,0.2-0.9c2.4-2.8,6.5-3,9.2-0.4c0.7,0.7,1.5,1.4,2.2,2.1c1.7-2,3.1-5.3,2.7-6.9
				c-0.9,0.5-1.8,0.7-2.5,1.3c-1.6,1.5-3.4,1.7-5.5,1.4c-2.6-0.3-4.8-0.8-6.4-3c-0.4-0.5-1.1-0.6-1.7-0.9c-0.1,0.7-0.4,1.4-0.3,2.1
				C119.4,106.6,120.9,108.5,120.5,110.9z M47.8,26.3c3.6,1.1,7.2,2.2,10.8,3.3c0.4,0.1,0.8,0.1,1.2,0.1c-0.1-0.4-0.2-0.8-0.4-1.2
				c-1.6-2.6-3.2-5.2-4.8-7.9c-0.3-0.6-0.7-1.2,0.1-1.7c0.2-0.1,0.1-0.5,0.2-0.7c-0.3,0-0.6-0.1-0.9,0c-1,0.5-1.9,1.1-2.8,1.8
				c-0.2,0.1-0.3,0.5-0.4,0.8c0.3,0,0.6,0.2,0.8,0.1c0.6-0.3,1.1-0.3,1.5,0.3c1.2,1.8,2.4,3.7,3.6,5.5c-0.1,0.1-0.1,0.2-0.2,0.3
				c-3.4-1.1-6.8-2.2-10.3-3.3c-0.4-0.1-0.8-0.1-1.2,0.1c-0.6,0.2-1.1,0.6-1.6,1c-0.2,0.2-0.3,0.5-0.5,0.8c0.3,0,0.6,0.2,0.9,0.1
				c0.7-0.3,1.3-0.2,1.7,0.5c1.4,2.3,2.9,4.7,4.3,7c0.3,0.5,0.5,0.9-0.1,1.4c-0.2,0.1-0.2,0.5-0.3,0.8c0.3,0,0.6,0.1,0.8,0
				c0.9-0.5,1.8-1.1,2.7-1.7c0.2-0.2,0.3-0.6,0.4-1c-0.1-0.1-0.2-0.2-0.3-0.3c-1.2,1-1.9,0.3-2.5-0.6c-1.1-1.8-2.1-3.5-3.2-5.2
				C47.7,26.4,47.7,26.3,47.8,26.3z M84.3,154.5c0.2-0.1,0.3-0.2,0.5-0.3c-0.2-0.6-0.3-1.2-0.6-1.8c-1.3-2.8-2.8-5.4-3.8-8.3
				c-0.8-2.2-1.1-4.5-1.6-6.8c-0.1-0.3,0.4-0.7,0.7-1c0.2,0.3,0.7,0.5,0.7,0.8c0.5,3.8,2.3,7.1,4,10.4c1.4,2.5,2.6,5.2,2.8,8.1
				c0.1,1.5,0.6,3.1-1.2,4.1c-0.6,0.4-0.5,1.1,0.1,1.5c0.5,0.4,1.1,0.6,1.5-0.3c0.2-0.4,0.5-0.9,0.8-1c1.3-0.7,1.4-1.9,1.5-3.2
				c0-0.8,0.1-1.6,0-2.5c-0.2-3.8-1.4-7.4-2.7-11c-0.4-1.2-0.9-2.4-1.2-3.6c-0.5-1.7-0.1-2.1,1.6-1.6c0.6,0.2,1.3,0.3,1.9,0.5
				c4.6,0.9,7.4-1.6,7-6.3c-0.3-4.2-1.9-7.9-4-11.4c-0.7-1.1-1.5-2-2.7-2.6c-0.6-0.3-1.2-0.7-1.7-1.2c-0.3-0.3-0.3-0.8-0.4-1.2
				c0.4,0,0.8-0.1,1.1-0.1c1,0.2,2,0.4,2.6-0.7c-1.3-1.4-1.3-1.4-2.8-0.3c-0.4,0.2-0.8,0.3-1.3,0.4c0-0.1-0.1-0.2-0.1-0.3
				c0.1-0.1,0.2-0.3,0.3-0.3c1.8-1.2,2-1.8,1.3-3.8c-0.1-0.2,0.3-0.6,0.6-0.7c0.4-0.2,1.1-0.1,1.3-0.4c2.4-2.9,5.5-4.2,9.2-4.3
				c0.3,0,0.8-0.4,0.9-0.7c0.3-0.5,0.4-1.1,0.7-2c-1,0.2-1.9,0.3-2.8,0.5c-0.4,0.1-0.9,0.2-1.3,0.1c-2.7-0.6-5.4-0.5-8.1,0
				c-0.6,0.1-1.3,0-1.9-0.2c-1.3-0.4-2-0.1-2.1,1.3c0,0.4,0.1,1-0.2,1.3c-1.9,2.1-2.3,4.8-3.6,7.2c-1.2,2.3-2.2,4.8-3.2,7.2
				c-1.6,3.8-1.6,7.7-0.6,11.6c0.3,1.1,0.2,1.9-0.3,2.9c-2.5,5.4-2.9,11-0.9,16.7c0.3,0.8,0.8,1.4,1.3,2.4c1.4-2.2-0.1-4.2,0.3-6.5
				c0.7,0.6,1.3,1,1.7,1.5c1,1.3,1.8,2.7,2.8,4.1C83,153.5,83.7,154,84.3,154.5z M18,114.1c-1.1,0.3-2,0.5-3,0.7
				c-0.7,0.2-1.4,0.3-1.7-0.6c0-0.2-0.4-0.3-0.5-0.3c-0.2,0-0.4,0.4-0.4,0.5c0.3,1.4,0.6,2.7,1,4.1c0,0.2,0.4,0.3,0.5,0.3
				c0.1,0,0.4-0.4,0.4-0.5c-0.3-1.1,0.5-1.3,1.3-1.5c2.5-0.6,5-1.2,7.5-1.9c0.6-0.2,1.2-0.2,1.5,0.6c0.1,0.2,0.4,0.2,0.7,0.3
				c0.1-0.2,0.3-0.5,0.3-0.7c-0.3-1.2-0.6-2.5-0.9-3.7c-0.1-0.2-0.3-0.4-0.5-0.5c-0.2,0.2-0.5,0.4-0.4,0.6c0.3,1.2-0.5,1.4-1.3,1.6
				c-1,0.2-2,0.5-3.2,0.8c-0.5-2.1-1-4.2-1.5-6.3c1.2-0.3,2.3-0.6,3.4-0.8c0.7-0.2,1.4-0.3,1.7,0.6c0,0.2,0.4,0.2,0.7,0.3
				c0.1-0.2,0.3-0.5,0.2-0.7c-0.3-1.2-0.6-2.5-0.9-3.7c-0.1-0.2-0.4-0.3-0.6-0.5c-0.1,0.2-0.4,0.5-0.4,0.6c0.2,0.9-0.3,1.2-1,1.3
				c-2.6,0.6-5.3,1.3-7.9,2c-0.6,0.2-1.2,0.2-1.4-0.7c0-0.2-0.4-0.3-0.6-0.4c-0.1,0.2-0.3,0.5-0.3,0.7c0.3,1.2,0.6,2.5,0.9,3.7
				c0.1,0.2,0.4,0.3,0.6,0.5c0.1-0.2,0.3-0.4,0.4-0.6c0.2-0.4,0.3-1,0.5-1.1c1.1-0.4,2.3-0.7,3.6-1C16.9,109.9,17.4,111.9,18,114.1z
				 M159.5,125.9c0-0.1,0-0.2,0-0.3c3-0.9,6-2,9.1-2.8c1.5-0.4,2.5-0.9,2.9-2.4c0-0.1,0.1-0.1,0.1-0.2c0-0.4,0-0.7,0-1.1
				c-0.3,0.2-0.5,0.3-0.8,0.5c-0.5,0.2-1.2,0.6-1.6,0.5c-2.6-1.1-5.1-2.2-7.7-3.4c-0.5-0.2-0.8-0.6-0.6-1.3c0.1-0.2-0.1-0.5-0.2-0.7
				c-0.2,0.1-0.6,0.2-0.7,0.4c-0.5,1-0.9,2-1.3,3c-0.1,0.2,0.1,0.5,0.2,0.8c0.3-0.1,0.5-0.3,0.8-0.4c0.4-0.2,1-0.6,1.3-0.5
				c2.2,0.8,4.4,1.8,6.7,2.7c-3.7,1.4-7.4,2.5-11,3.7c-0.4,0.1-0.7,0.4-1.1,0.6c0.3,0.3,0.6,0.6,1,0.8c2.8,1.3,5.6,2.5,8.4,3.8
				c0.6,0.3,1.2,0.6,0.9,1.5c-0.1,0.2,0.2,0.5,0.3,0.7c0.2-0.2,0.6-0.3,0.7-0.5c0.5-1,0.9-2,1.3-3c0.1-0.2-0.1-0.6-0.1-0.8
				c-0.3,0.1-0.6,0.2-0.7,0.4c-0.4,0.8-1,0.8-1.6,0.5C163.5,127.6,161.5,126.8,159.5,125.9z M104.3,21.8c-2.6-2.2-3.7-3.7-4.7-6.1
				c0.2-0.1,0.4-0.2,0.6-0.4c1.3-0.8,2-2,1.7-3.5c-0.2-1.5-1.3-2.3-2.7-2.5C97.5,9,95.6,9,93.7,8.9c-0.2,0-0.5,0.2-0.7,0.4
				c0.1,0.2,0.3,0.6,0.4,0.6c0.9,0.1,0.9,0.7,0.9,1.3c-0.2,2.7-0.3,5.3-0.5,8c0,0.7-0.2,1.2-1.1,1.2c-0.2,0-0.4,0.4-0.7,0.5
				c0.2,0.2,0.5,0.4,0.7,0.5c1.2,0.1,2.5,0.2,3.7,0.2c0.2,0,0.5-0.3,0.7-0.5c-0.2-0.2-0.4-0.4-0.6-0.6c-0.3-0.3-0.8-0.6-0.8-1
				c0-1.2,0.1-2.3,0.2-3.5c0.1-0.1,0.2-0.2,0.4-0.3c0.5,0.4,1.1,0.8,1.5,1.3c0.8,1.1,1.4,2.4,2.2,3.5
				C101.2,22.1,102.9,22.5,104.3,21.8z M168.3,114.9c3.7,0,6.4-2.9,6.4-6.8c0-3.7-3-6.6-6.7-6.6c-3.7,0-6.5,3-6.5,6.9
				C161.5,112,164.5,114.9,168.3,114.9z M151.5,48.9c3.5,0,6.7-3.1,6.7-6.5c0-3.5-3.3-6.9-6.9-6.8c-3.6,0-6.6,3.1-6.6,6.6
				C144.8,45.8,147.9,48.9,151.5,48.9z M16.2,97.7c0.4-1.2-1-2.8,1.2-3.4c0.1,0,0.2-0.5,0.2-0.6c-0.1-0.2-0.4-0.3-0.6-0.3
				c-1,0-2,0.1-2.9,0.2c-0.2,0-0.4,0.3-0.7,0.4c0.2,0.2,0.4,0.6,0.6,0.6c0.9,0.1,1.1,0.6,1.1,1.3c0,0.6,0,1.2,0,1.9
				c-1.4,0.1-2.8,0.2-4.2,0.2c-0.1-0.4-0.1-0.7-0.1-1c0-1.4-0.6-3,1.4-3.6c0.1,0,0.2-0.5,0.2-0.6c-0.1-0.1-0.4-0.3-0.6-0.3
				c-0.8,0.1-1.5,0.2-2.3,0.4c0.1,2.7,0.3,5.3,0.4,8c0,0.2,0.3,0.4,0.4,0.6c0.2-0.2,0.4-0.4,0.6-0.6c0.3-0.3,0.6-0.8,0.9-0.9
				c2.8-0.2,5.7-0.4,8.5-0.5c0.7,0,1.1,0.2,1.2,0.9c0,0.3,0.4,0.5,0.5,0.8c0.1-0.3,0.4-0.7,0.4-1c-0.1-2.5-0.3-4.9-0.4-7.4
				c0-0.9-0.2-1.5-1.2-1.6c-0.3,0-0.6-0.2-1-0.2c-0.4,0-0.7,0.1-1.1,0.2c0.2,0.3,0.4,0.7,0.7,0.8c1.3,0.8,2.2,3.6,1.4,4.9
				c-0.2,0.3-0.6,0.5-0.9,0.5C18.8,97.6,17.6,97.6,16.2,97.7z M88.6,8.9c-2.7,0.2-5.3,0.5-7.8,0.7c-0.3,0-0.5,0.3-0.8,0.4
				c0.2,0.2,0.5,0.4,0.7,0.6c0.3,0.3,0.8,0.5,0.8,0.9c0.3,2.9,0.6,5.8,0.8,8.7c0,0.3-0.4,0.7-0.7,1c-0.3,0.3-0.6,0.5-0.9,0.7
				c0.4,0.1,0.8,0.3,1.2,0.3c2.5-0.2,5.1-0.4,7.6-0.7c0.4,0,0.7-0.5,0.9-0.8c0.2-0.4,0.3-0.9,0.3-1.3c0-0.4-0.1-0.7-0.2-1.1
				c-0.3,0.3-0.7,0.5-0.9,0.8c-0.7,1.2-3.5,2.2-4.7,1.5c-0.2-0.1-0.5-0.5-0.5-0.8c-0.2-1.2-0.3-2.5-0.4-3.9c1.3,0.3,2.9-1,3.4,1.1
				c0,0.1,0.5,0.3,0.5,0.2c0.2-0.2,0.4-0.4,0.4-0.7c0-1-0.1-2-0.3-2.9c0-0.2-0.3-0.4-0.4-0.6c-0.2,0.2-0.4,0.4-0.6,0.6
				c-0.2,0.3-0.4,0.9-0.7,1c-0.8,0.2-1.6,0.2-2.5,0.3c-0.1-1.5-0.3-2.9-0.4-4.3c0.5-0.1,0.8-0.1,1.1-0.1c1.3,0,2.9-0.6,3.5,1.3
				c0,0.1,0.5,0.2,0.6,0.1c0.1-0.1,0.3-0.4,0.2-0.6C89,10.4,88.8,9.7,88.6,8.9z M25.5,65.9c0.3,0.7,0.4,1.1,0.6,1.5
				c0.3-0.3,0.6-0.6,0.8-1c0.4-0.9,0.7-1.9,1-2.9c0.1-0.2-0.1-0.5-0.1-0.7c-0.2,0.1-0.6,0.1-0.7,0.2c-0.4,1.1-1.3,1-2.2,1
				c-3.2,0-6.4-0.1-9.6-0.1c-0.4,0-0.8,0.1-1.5,0.1c0.4,0.7,0.5,1.4,0.9,1.7c2.5,2.2,5.1,4.3,7.6,6.4c0.6,0.5,1.2,1,0.9,2
				c-0.1,0.1,0.2,0.4,0.3,0.6c0.2-0.1,0.6-0.2,0.7-0.3c0.4-1,0.7-2,1.1-3c0.1-0.2-0.1-0.5-0.2-0.7c-0.2,0.1-0.5,0.2-0.7,0.4
				c-0.1,0.1-0.2,0.3-0.3,0.6c-0.4-0.2-0.7-0.4-1-0.6c-2.2-1.6-2.2-1.6-1.1-4.2c0.1-0.3,0.6-0.6,0.9-0.7
				C23.8,65.8,24.7,65.9,25.5,65.9z M119,25.2c0.3-0.4,0.5-0.6,0.7-0.9c1.9-2.1,1.9-2.1,4.4-0.8c0.3,0.1,0.5,0.5,0.5,0.8
				c0,1-0.2,2.1-0.3,2.9c-0.6,0.2-1,0.3-1.4,0.4c0.1,0.2,0.2,0.6,0.4,0.6c1.1,0.6,2.3,1.1,3.5,1.6c0.2,0.1,0.4-0.1,0.6-0.1
				c0-0.2,0-0.7-0.1-0.7c-1-0.5-0.9-1.4-0.8-2.2c0.3-3.2,0.6-6.4,0.9-9.6c0-0.4-0.1-0.8-0.2-1.3c-0.6,0.2-1.3,0.1-1.6,0.5
				c-2.4,2.3-4.6,4.7-6.9,7c-0.6,0.6-1.1,1.3-2.1,0.7c-0.1-0.1-0.6,0.2-0.6,0.3c0,0.2,0.1,0.6,0.3,0.7c1,0.5,2,0.9,3,1.4
				c0.2,0.1,0.5-0.1,0.6-0.2c0.1-0.1,0-0.5-0.1-0.6C119.6,25.5,119.3,25.4,119,25.2z M163.4,78.9c-0.1-0.3-0.2-0.5-0.3-0.7
				c-0.2-0.2-0.4-0.3-0.6-0.4c-0.1,0.2-0.3,0.5-0.3,0.7c0.2,1.3,0.5,2.5,0.8,3.7c0,0.2,0.3,0.3,0.5,0.5c0.2-0.2,0.5-0.4,0.5-0.6
				c-0.2-1.1,0.6-1.5,1.3-2c2.7-1.7,5.4-3.3,8.1-4.9c0.4-0.2,0.7-0.6,1.3-1c-0.7-0.4-1.1-0.9-1.7-1c-3.4-0.5-6.8-0.9-10.2-1.5
				c-0.5-0.1-0.9-0.7-1.3-1c-0.2-0.2-0.4-0.3-0.6-0.4c-0.1,0.2-0.4,0.5-0.3,0.7c0.2,1,0.4,2.1,0.7,3.1c0,0.2,0.3,0.3,0.5,0.5
				c0.2-0.2,0.4-0.4,0.5-0.6c0.1-0.2,0-0.4,0-0.8c1,0.1,1.9,0.2,2.8,0.2c0.8,0,1,0.4,1.2,1.1c0.5,2.4,0.5,2.4-1.6,3.7
				C164.2,78.5,163.9,78.6,163.4,78.9z M39.7,38.6c0.8-0.7,1.4-1.4,2.1-1.9c0.2-0.2,0.7-0.3,0.9-0.2c1,0.5,1.9,1,2.6,1.4
				c-0.1,0.6-0.2,1-0.2,1.5c0.4-0.2,0.9-0.3,1.3-0.6c0.8-0.6,1.5-1.3,2.2-2c0.2-0.2,0.1-0.5,0.2-0.8c-0.3,0-0.6-0.1-0.7,0
				c-0.7,0.6-1.4,0.3-2-0.1c-2.9-1.6-5.9-3.1-8.8-4.7C36.8,31,36.4,31,35.9,31c-0.1,0.5-0.3,1.2-0.2,1.6c1.2,3.1,2.6,6.2,3.9,9.3
				c0.3,0.7,0.6,1.4-0.1,2c-0.1,0.1,0,0.5,0,0.7c0.2,0,0.5,0.1,0.7,0c0.8-0.7,1.6-1.5,2.4-2.3c0.1-0.1,0.1-0.4,0.1-0.7
				c-0.2,0-0.5-0.1-0.7-0.1c-0.2,0-0.4,0.2-0.7,0.3C40.7,40.8,40.2,39.7,39.7,38.6z M11.7,73.5c-0.9,1.9-1.5,3.9-1.3,6
				c0.2,3.4,2.4,5.8,5.7,6.3c3.1,0.4,5.9-1.3,6.9-4.5c0.4-1.3,0.4-2.7,0.6-4c0.2-1.4-0.6-2.2-1.8-2.6c-0.4-0.1-0.8-0.1-1.2-0.1
				c0.2,0.4,0.3,0.8,0.5,1c1.2,1.1,1.6,2.3,1.2,3.9c-0.5,2.1-2,3.6-4.1,3.9c-2.7,0.4-5.2-0.6-6.2-2.5c-1.3-2.5-0.3-5.2,2.3-6.2
				c0.2-0.1,0.4-0.4,0.6-0.6c-0.2-0.1-0.4-0.4-0.6-0.4C13.4,73.6,12.6,73.6,11.7,73.5z M167.8,56.2c-0.7-2.5-1.6-4.8-3.7-6.4
				c-2-1.5-4.2-1.9-6.5-1c-2.4,1-3.8,2.8-4,5.3c-0.2,2.4,0.9,4.4,2.3,6.3c0.9,1.2,2,1.5,3.3,1c0.3-0.1,0.6-0.5,0.9-0.7
				c-0.3-0.1-0.7-0.4-1-0.4c-1.6,0-2.7-0.8-3.4-2.2c-1.6-3.3,0.5-7,4.5-7.8c2-0.4,3.6,0.3,4.7,1.9c1,1.5,1.5,3,0.1,4.6
				c-0.1,0.1,0,0.5,0,0.8c0.2,0,0.6,0.1,0.7,0C166.4,57.2,167.1,56.7,167.8,56.2z M67.5,12.9C67,13,66.7,13,66.3,13.1
				c-2.4,0.4-4.6,1.2-6.2,3.2c-1.6,2-1.9,4.2-1,6.5c0.9,2.3,2.7,3.7,5.2,3.9c2.1,0.2,3.9-0.5,5.7-1.5c1.4-0.7,1.9-1.8,1.5-3.2
				c-0.1-0.3-0.4-0.6-0.5-1c-0.2,0.3-0.5,0.6-0.6,0.9c-0.2,1.7-1.3,2.7-2.9,3.2c-2.9,0.9-5.7-0.8-6.7-4.2c-0.7-2.3-0.1-4.1,1.7-5.4
				c1.9-1.4,3.1-1.3,5.3,0.2c0.2,0.1,0.6,0.1,0.7,0c0.1-0.1,0.1-0.5,0-0.7C68.3,14.4,67.9,13.7,67.5,12.9z M30.5,36.7
				c-1.7,2.1-3.3,4-4.9,6c-0.2,0.2-0.1,0.6-0.2,0.8c0.3,0,0.6-0.1,0.8,0c0.5,0,1.1-0.2,1.4,0.1c2.2,1.7,4.4,3.5,6.6,5.2
				c0.5,0.4,0.8,0.8,0.3,1.5c-0.1,0.2,0,0.6,0,0.8c0.3-0.1,0.6-0.1,0.8-0.3c0.9-1,1.7-2,2.5-3.1c0.2-0.2,0.1-0.6,0.1-0.8
				c-0.3,0.1-0.6,0.1-0.8,0.2c-0.4,0.1-1,0.5-1.3,0.3c-1.1-0.7-2.1-1.6-3.1-2.4c0.3-0.4,0.6-0.8,0.8-1.1c0.6-0.7,1.1-1.7,2.3-0.9
				c0.1,0.1,0.5-0.3,0.9-0.5c-1-0.8-1.9-1.6-2.7-2.2c-0.2-0.2-0.6-0.1-0.8-0.2c0,0.3-0.1,0.7,0.1,0.8c0.6,0.6,0.4,1.1-0.1,1.6
				c-0.5,0.5-0.9,1.1-1.4,1.7c-1.2-1-2.3-1.9-3.5-2.8c0.2-0.2,0.2-0.4,0.3-0.5c1-1,1.5-2.9,3.6-1.8c0.1,0,0.4-0.2,0.4-0.3
				c0-0.2,0-0.5-0.2-0.6C31.8,37.7,31.2,37.2,30.5,36.7z M175.9,81c-0.7-0.1-1.4-0.3-2.1-0.4c-0.3,0-0.7,0.1-1.1,0.2
				c0.2,0.3,0.4,0.6,0.7,0.8c0.4,0.5,0.9,1,1.1,1.6c0.2,0.6,0.2,1.4,0.2,2.2c-3.2,0.2-6.4,0.4-9.5,0.6c-0.3,0-0.7-0.6-1-0.9
				c-0.2-0.2-0.4-0.5-0.6-0.8c-0.1,0.3-0.4,0.6-0.4,1c0,1.3,0.1,2.6,0.3,3.9c0,0.2,0.3,0.4,0.5,0.7c0.2-0.2,0.3-0.5,0.5-0.7
				c0.3-0.4,0.5-1,0.9-1c3.1-0.3,6.3-0.5,9.4-0.7c0.5,2.3,0.5,2.5-1.2,4c-0.1,0.1-0.2,0.4-0.2,0.5c0,0.1,0.3,0.3,0.4,0.3
				c1,0,1.9,0,2.8,0C175.9,88.6,175.6,84.9,175.9,81z M14.3,121.6c0.7,1.3,1.4,2.6,2,3.8c0.7,1.4,1.3,2.7,1.9,4.1
				c0.2,0.6,0.2,1.3,0.4,1.9c0.1,0.2,0.4,0.6,0.6,0.6c0.8-0.1,1.6-0.3,2.4-0.4c0.2,0,0.4-0.3,0.4-0.5c0-0.2-0.3-0.5-0.4-0.5
				c-2.1,0-2.3-1.7-3.1-3.1c2.9-1.3,5.8-2.6,8.6-3.9c0.7-0.3,1.1,0,1.5,0.6c0.1,0.2,0.5,0.3,0.7,0.4c0.1-0.3,0.2-0.6,0.1-0.8
				c-0.5-1.3-1.1-2.5-1.8-3.8c-0.1-0.2-0.5-0.3-0.7-0.5c-0.1,0.3-0.2,0.5-0.2,0.8c-0.1,0.4-0.1,1.1-0.3,1.2
				c-2.9,1.4-5.8,2.8-8.8,4.1c-0.2-0.4-0.3-0.6-0.4-0.8c-0.4-1.2-1.5-2.3,0.2-3.4c0.1-0.1,0.1-0.4,0-0.5c-0.1-0.1-0.4-0.3-0.6-0.2
				C16,120.9,15.1,121.3,14.3,121.6z M19.3,55.4c2.8,1.5,5.5,2.8,8.1,4.2c0.7,0.3,1.2,0.7,0.7,1.6c-0.1,0.2,0.1,0.6,0.2,0.9
				c0.2-0.2,0.6-0.3,0.7-0.5c0.7-1.2,1.3-2.4,1.9-3.6c0.1-0.2,0-0.6,0-0.9c-0.3,0.1-0.6,0.2-0.8,0.4c-0.5,0.8-1,0.6-1.7,0.3
				c-2.1-1.1-4.3-2.2-6.5-3.3c-0.6-0.3-1.1-0.6-1.7-0.9c0.1-0.3,0.2-0.4,0.3-0.6c0.7-1.1,0.9-2.9,2.9-2.2c0.1,0,0.4-0.2,0.4-0.3
				c0.1-0.1,0-0.4-0.2-0.5c-0.8-0.6-1.7-1.1-2.4-1.5c-1.4,3.6-3,7-5.3,10.1c0.6,0.5,1.3,1.2,2,1.8c0.1,0.1,0.5,0.1,0.6,0
				c0.1-0.1,0.2-0.5,0.1-0.6C17.3,58.1,18.6,56.8,19.3,55.4z M136.4,21.5c-1.7,0-3.1,0.9-3.3,2.4c-0.2,1,0.1,2.1,0.3,3.1
				c0.2,0.9,0.7,1.7,1,2.5c0.4,1.1-0.1,2.3-1.1,2.7c-0.8,0.4-2.1,0.1-2.6-0.9c-0.4-0.7-0.3-1.6-0.5-2.5c-0.1-0.3-0.1-0.6-0.2-1
				c-0.3,0.2-0.7,0.4-0.8,0.6c-1,1.8-0.9,2.6,0.8,3.8c0.6,0.5,1.3,0.9,2,1.1c2.1,0.7,4.2-0.5,4.5-2.6c0.1-1.1-0.3-2.4-0.6-3.5
				c-0.2-0.9-0.8-1.8-0.9-2.7c-0.2-1.5,1.3-2.3,2.6-1.6c1,0.5,1.3,1.3,1.2,2.5c0,0.3,0.3,0.6,0.5,0.9c0.3-0.9,1.2-2,0.9-2.5
				C139.4,22.5,138,21.5,136.4,21.5z M144.8,27.8c-2.4,0-3.8,2.1-3.2,4.7c0.2,1,0.6,1.9,0.8,2.8c0.3,1.3-0.4,2.5-1.5,2.7
				c-1,0.3-2.2-0.4-2.5-1.6c-0.2-0.7,0-1.6,0.1-2.4c0-0.2,0-0.5-0.1-0.7c-0.1-0.1-0.5-0.2-0.5-0.1c-0.5,0.9-1.4,1.8-1.4,2.6
				c0.1,2.2,3.7,4.1,5.7,3.4c1.9-0.7,2.8-2.8,2.2-5c-0.3-1-0.6-1.9-0.8-2.8c-0.2-0.9,0.1-1.7,1-2.2c0.9-0.5,1.8-0.1,2.2,0.7
				c0.3,0.6,0.2,1.4,0.4,2.1c0.1,0.3,0.3,0.7,0.4,1c0.5-0.8,1.5-1.9,1.3-2.3C148,29.1,146.7,27.9,144.8,27.8z M109.1,23.6
				c3-0.1,4.7-2.9,3.3-5.5c-0.4-0.7-0.9-1.2-1.4-1.8c-0.5-0.6-1.2-1-1.4-1.7c-0.3-0.7-0.3-1.7,0-2.2c0.3-0.4,1.4-0.6,2.1-0.5
				c0.9,0.1,1.3,0.8,1.5,1.7c0.1,0.3,0.4,0.5,0.5,0.8c0.2-0.3,0.5-0.5,0.6-0.8c0.4-1.6,0.2-2-1.4-2.5c-0.8-0.3-1.6-0.5-2.4-0.4
				c-2.6,0.1-4,2.6-2.9,4.9c0.3,0.6,0.7,1.1,1.1,1.6c0.5,0.6,1,1.1,1.5,1.6c0.7,0.8,1,1.7,0.4,2.6c-0.3,0.5-1,1-1.6,1.1
				c-1,0.1-1.9-0.4-2.4-1.4c-0.2-0.5-0.3-1-0.5-1.5c-0.1-0.2-0.3-0.4-0.6-0.5c-0.1,0-0.4,0.3-0.4,0.5c-0.6,1.8-0.1,2.9,1.7,3.6
				C107.6,23.3,108.4,23.4,109.1,23.6z M69.8,149.8C69.8,149.8,69.8,149.9,69.8,149.8c-0.7,0.1-1.3,0-2,0.1
				c-7.7,0.5-13.2,5.4-14.3,13c-0.1,0.6-0.6,1.6,0.5,1.8c1.2,0.2,0.8-1,1-1.6c0-0.1,0-0.2,0-0.2c1-5.9,4.9-10.2,10.7-11.1
				c2.2-0.4,4.6-0.1,6.9-0.2c0.4,0,0.7-0.3,1.1-0.4c-0.3-0.3-0.6-0.9-0.9-1C71.8,149.9,70.8,149.9,69.8,149.8z M160.5,68
				c-0.1-0.1-0.3-0.2-0.4-0.3c0.3-0.3,0.6-0.8,1-1c2.5-1,5.1-2,7.7-3c0.7-0.3,1.2-0.3,1.5,0.5c0.1,0.2,0.5,0.2,0.7,0.3
				c0.1-0.2,0.2-0.5,0.1-0.7c-0.4-1.2-0.9-2.5-1.4-3.7c-0.1-0.2-0.5-0.3-0.7-0.5c-0.1,0.2-0.3,0.5-0.2,0.7c0.3,0.9-0.2,1.2-0.8,1.4
				c-2.5,1-5,2-7.6,2.9c-0.6,0.2-1.2,0.4-1.5-0.4c-0.1-0.2-0.5-0.3-0.7-0.4c0,0.3-0.2,0.7-0.1,0.9c0.4,1.1,0.8,2.2,1.3,3.3
				c0.1,0.3,0.5,0.4,0.7,0.7C160.2,68.5,160.3,68.2,160.5,68z M176,96.8c0-0.6,0.1-1.2,0.1-1.8c0-0.2-0.3-0.4-0.4-0.6
				c-0.2,0.2-0.5,0.3-0.5,0.5c-0.1,0.9-0.6,1-1.3,1c-2.7-0.2-5.5-0.3-8.2-0.5c-0.7,0-1-0.3-1.1-1c0-0.2-0.3-0.4-0.5-0.7
				c-0.2,0.2-0.4,0.5-0.5,0.7c-0.1,1.2-0.2,2.5-0.2,3.7c0,0.3,0.2,0.5,0.3,0.8c0.2-0.2,0.6-0.4,0.6-0.7c0.2-0.7,0.6-0.9,1.3-0.8
				c2.7,0.2,5.4,0.3,8.1,0.5c0.7,0,1.3,0.2,1.3,1.1c0,0.2,0.3,0.4,0.5,0.6c0.2-0.2,0.5-0.4,0.5-0.7C176,98.2,176,97.5,176,96.8z
				 M79.3,22.4c-0.5-0.2-0.8-0.5-1-0.4c-1,0.2-1.2-0.4-1.4-1.1c-0.6-2.6-1.2-5.1-1.8-7.7c-0.2-0.7-0.3-1.4,0.7-1.6
				c0.2,0,0.3-0.4,0.4-0.6c-0.2-0.1-0.5-0.3-0.7-0.3c-1.3,0.3-2.6,0.6-3.9,0.9c-0.2,0.1-0.3,0.4-0.5,0.6c0.2,0.1,0.5,0.4,0.6,0.4
				c1-0.2,1.2,0.4,1.4,1.1c0.6,2.6,1.2,5.2,1.9,7.8c0.2,0.7,0.2,1.2-0.6,1.5c-0.2,0.1-0.3,0.4-0.5,0.7c0.3,0.1,0.6,0.3,0.8,0.3
				c1.2-0.3,2.5-0.6,3.7-0.9C78.6,22.9,78.8,22.7,79.3,22.4z M75.1,125.2c-2.6,0.3-4.9,0.5-7.5,0.8c3.8,3.6,4.3,3.8,7.5,2.7
				C75.1,127.6,75.1,126.5,75.1,125.2z M108.6,157.2c2.1-0.7,4.1-1.5,6.4-2.3c-1.1-0.9-2.1-1.2-3.2-0.9
				C110.2,154.4,108.5,154.8,108.6,157.2z M116.6,15.7c0,0.1,0.1,0.3,0.1,0.4c0.3,0,0.7,0,0.9-0.1c0.5-0.5,1-1,1.2-1.7
				c0.1-0.6-0.1-1.4-0.4-2c-0.1-0.2-0.9-0.2-1.2-0.1c-0.2,0.1-0.5,0.9-0.4,1C118.2,14.2,117.3,15,116.6,15.7z M63.3,115
				c-0.1,0-0.3-0.1-0.4-0.1c-0.6,1.3-1.1,2.7-1.7,4c-0.1,0.1,0.1,0.4,0.2,0.6c0.2-0.1,0.6-0.2,0.7-0.4
				C62.6,117.7,62.9,116.3,63.3,115z M51.5,128.8c1.2,1,2.2,1.1,3.4,0.1C53.8,128,52.7,128,51.5,128.8z M94.4,110.6
				c0.1,0,0.2,0.1,0.3,0.1c0.2-0.4,0.7-1.1,0.5-1.3c-0.3-0.4-1-0.8-1.4-0.8c-0.4,0-0.9,0.5-1.2,0.9c-0.1,0.2,0.4,0.7,0.7,1.2
				c0.2-0.8,0.3-1.4,0.4-1.9c0.1,0,0.3,0,0.4,0C94.2,109.5,94.3,110,94.4,110.6z M122.4,108.5c-0.1,0-0.2,0-0.4-0.1
				c-0.1,0.4-0.3,0.9-0.2,1.3c0.2,0.4,0.7,0.7,1.1,0.8c0.2,0,0.7-0.4,0.8-0.7c0-0.3-0.3-0.7-0.5-1.3c-0.3,0.7-0.4,1.2-0.5,1.6
				c-0.1,0-0.2,0-0.3-0.1C122.4,109.6,122.4,109.1,122.4,108.5z M57.5,122.3c-0.1,0-0.2,0.1-0.3,0.1c-0.2-0.3-0.4-0.6-0.6-0.9
				c-0.1,0.1-0.2,0.1-0.3,0.2c0.2,0.4,0.4,1,0.5,1c0.5,0,1-0.2,1.3-0.5c0.2-0.2-0.1-0.8-0.2-1.2c-0.1,0-0.3,0.1-0.4,0.1
				C57.5,121.5,57.5,121.9,57.5,122.3z M124,112c-0.1,0.1-0.2,0.2-0.3,0.3c0.2,0.3,0.4,0.9,0.6,0.9c0.4,0,0.7-0.4,1-0.6
				c0-0.1,0-0.2-0.1-0.3C124.9,112.2,124.5,112.1,124,112z M131.4,114.5c0,0,0.1-0.1,0.1-0.1c-0.2-0.1-0.3-0.2-0.5-0.3
				c0,0.1-0.1,0.1-0.1,0.2C131.1,114.3,131.2,114.4,131.4,114.5z"/>
			<path class="st8" d="M57.6,161.7c0.1-1,0.6-1.5,1.7-1.6c6-0.6,12.1-1.3,18.1-1.8c1.9-0.1,3.9,0.4,5.8,0.6c0.2,0,0.4,0.4,0.6,0.6
				c-5,0.3-10,0.6-15,1C65.1,160.8,61.3,161.3,57.6,161.7z"/>
			<path class="st4" d="M171.5,155.1c0.1-0.8,0.5-1.4,0.3-1.7c-0.8-1-2-0.5-2.8-0.5c0,1.3,0,2.4,0,3.6c0.5,0,1,0,1.6,0
				c-0.1-0.5-0.3-0.9-0.4-1.3c1,0.3,1.1,1.8,2.5,1.4C172,155.9,171.7,155.4,171.5,155.1z"/>
			<path class="st13" d="M132.5,114.3c4.3,0.1,8.6,0.2,13,0.2c0.4,0,1.1-0.5,1.1-0.7c-0.1-0.8-0.1-2-0.6-2.3
				c-2.4-1.4-3.4-3.7-4.3-6.1c-1.5-3.7-2.8-7.5-4.2-11.2c2-0.9,3.9-1.7,5.8-2.5c1-0.5,2-1.1,3-1.7c1.3-0.9,1.9-2.9,1.3-4.3
				c-2.7,0.7-5.3,1.5-8,2.1c-5.9,1.2-11.9,0.9-17.8,0.1c-9.7-1.2-19-4-28.4-6.2c-6.5-1.5-13.1-2.6-19.9-2.6
				c-9.1,0.1-17.4,2.5-25,7.6c-0.4,0.3-0.8,0.6-1.2,0.9c-0.3,0.3-0.6,0.6-1,0.9c-0.3-1.2,0.5-3,1.7-3.8c1.6-1,3.3-1.9,4.8-2.9
				c0.4-0.3,0.9-0.9,1-1.4c1-6.9,2.8-13.5,6.1-19.7c0.2-0.4,0.4-0.7,0.6-1c1,0.2,2,0.4,2.9,0.6c1.6,0.3,2.7,1.2,2.8,2.9
				c0.1,3.3,0.2,6.6,0.3,9.9c0,1.3,0,2.7,0,4.1c3.8-0.1,7.4-0.3,11.2-0.4c0-0.4,0-0.8,0-1.2c0-4,0-8.1,0-12.1c0-2.3,0.1-2.4,2.4-2.4
				c3.1,0,6.3,0,9.4,0.3c3.1,0.3,5.1,2.1,5.9,5.1c0.2,0.8,0.5,1.5,0.7,2.2c0.2,1.3,1.1,1.3,2.1,1.3c1.1-0.1,1.1-0.8,1.1-1.7
				c-0.1-3.3-0.1-6.7-0.2-10c0-0.3,0-0.6-0.1-1c-12.2,0-24.4,0-36.9,0c0.3-0.6,0.5-0.9,0.7-1.2c6.6-9.1,15.3-14.5,26.4-16
				c10.5-1.4,20.3,1,29.1,7c6.4,4.3,11.5,10,16,16.3c0.7,0.9,1.3,1.9,2,2.8c0.8,1.1,2.5,1.1,3.2,0c0.1-0.2,0-0.7-0.1-1
				c-2.8-7.8-5.7-15.5-8.5-23.3c-0.5-1.3-1-2.6-1.4-3.9c-0.3-0.9-0.9-1.4-1.9-1.4c-0.5,0-0.9,0-1.4,0c-2.3,0-2.3,0-2.9,2.2
				c-0.5,1.8-1.5,2.3-3.3,1.4c-5.9-2.9-12.2-5-18.7-5.9c-9.2-1.2-18.1-0.4-26.9,2.5c-9.2,3.1-17.2,8.3-23.9,15.4
				c-7.9,8.5-13,18.4-14.9,29.9c-2.4,14.3,0.3,27.7,7.9,40.1c0.1,0.1,0.2,0.3,0.3,0.4c0.2,1.8,0.3,3.6,0.5,5.4c0,0,0,0,0,0
				c-3-3.7-5.3-7.8-7.1-12.2C23,82.7,40.4,44.8,74.6,34.1c15.4-4.8,30.5-3.6,45.1,3.5c0.4,0.2,0.7,0.3,0.9,0.4
				c0.8-1.2,1.5-2.3,2.2-3.4c0.1,0,0.1,0,0.2,0c1-0.2,2-0.5,3-0.7c0.4,0.1,0.8,0.3,1.2,0.3c2.6-0.2,4.1,1.2,4.7,3.5
				c0.1,0.1,0.2,0.2,0.2,0.3c0,0,0,0,0,0c0.4,1.1,0.8,2.3,1.2,3.4c0.1,0.1,0.2,0.2,0.3,0.3l0,0c0.2,0.6,0.3,1.2,0.5,1.9
				c1.2,3.7,3,6.9,5.5,10c8.1,9.5,12.6,20.7,13.5,33.1c1.5,20.6-5.7,37.8-21.2,51.4c-0.1,0.1-0.3,0.2-0.4,0.3c0,0-0.1,0-0.2,0
				c-0.6-0.8-0.8-1.7-0.4-2.6c0.3-0.2,0.7-0.4,1-0.7c3.8-3.4,7-7.2,10-11.4c1.4-1.9,1.2-3.7,0.4-5.7c-0.2-0.5-0.8-1.2-1.3-1.3
				c-0.4,0-1.1,0.6-1.3,1.1c-2.1,3.7-4.6,7-7.7,9.9c-0.4-1.2-0.7-2.3-1.1-3.5c-0.1-0.2-0.2-0.4-0.2-0.6
				C130.5,120.5,130.8,117.3,132.5,114.3z M134.7,86.1c-0.3-0.8-0.4-1.2-0.5-1.6c-2.9-8.3-5.8-16.7-8.7-25c-0.7-1.9-1.1-2.2-3.1-2.2
				c-2.8,0.1-5.7,0.2-8.5,0.2c-1.2,0-2.4-0.1-3.6-0.2c-0.7-0.1-1.1,0.3-1.1,1c-0.1,1,0.1,1.7,1.3,1.9c2.5,0.6,3.2,1.8,2.5,4.2
				c-1.4,5.4-2.8,10.8-4.2,16.2c-0.2,0.7-0.3,1.5-0.5,2.3c2.2,0.5,4.1,0.9,6.2,1.3c0.6-2.1,1.1-4.1,1.6-6.1c0.5-2,1.1-4,1.8-6.3
				c0.3,0.7,0.4,1.1,0.6,1.4c1.3,3.8,2.6,7.7,4,11.5c0.1,0.4,0.7,0.8,1.1,0.8c1.5,0.2,3.1,0.4,4.7,0.4
				C130.3,86.1,132.3,86.1,134.7,86.1z"/>
			<path class="st14" d="M84.3,154.5c-0.6-0.6-1.3-1-1.8-1.7c-1-1.3-1.8-2.7-2.8-4.1c-0.4-0.5-0.9-0.9-1.7-1.5
				c-0.4,2.3,1.1,4.2-0.3,6.5c-0.5-0.9-1.1-1.6-1.3-2.4c-2-5.7-1.6-11.2,0.9-16.7c0.5-1,0.6-1.8,0.3-2.9c-1-3.9-1-7.8,0.6-11.6
				c1-2.4,2-4.9,3.2-7.2c1.2-2.4,1.7-5.2,3.6-7.2c0.2-0.3,0.1-0.8,0.2-1.3c0.1-1.4,0.8-1.7,2.1-1.3c0.6,0.2,1.3,0.3,1.9,0.2
				c2.7-0.5,5.4-0.6,8.1,0c0.4,0.1,0.9,0,1.3-0.1c0.9-0.1,1.7-0.3,2.8-0.5c-0.3,0.9-0.4,1.5-0.7,2c-0.2,0.3-0.6,0.7-0.9,0.7
				c-3.7,0.1-6.8,1.4-9.2,4.3c-0.2,0.3-0.9,0.2-1.3,0.4c-0.3,0.1-0.6,0.6-0.6,0.7c0.6,2,0.4,2.6-1.3,3.8c-0.1,0.1-0.2,0.2-0.3,0.3
				c0,0.1,0.1,0.2,0.1,0.3c0.4-0.1,0.9-0.2,1.3-0.4c1.5-1,1.5-1,2.8,0.3c-0.7,1.1-1.6,0.9-2.6,0.7c-0.4-0.1-0.7,0-1.1,0.1
				c0.1,0.4,0.1,0.9,0.4,1.2c0.5,0.5,1.1,0.9,1.7,1.2c1.3,0.5,2.1,1.4,2.7,2.6c2.1,3.5,3.7,7.3,4,11.4c0.4,4.7-2.4,7.2-7,6.3
				c-0.6-0.1-1.3-0.3-1.9-0.5c-1.7-0.5-2-0.1-1.6,1.6c0.3,1.2,0.8,2.4,1.2,3.6c1.3,3.6,2.5,7.2,2.7,11c0,0.8,0,1.6,0,2.5
				c-0.1,1.2-0.2,2.5-1.5,3.2c-0.4,0.2-0.6,0.7-0.8,1c-0.4,0.8-1,0.6-1.5,0.3c-0.6-0.4-0.7-1.2-0.1-1.5c1.8-1,1.4-2.6,1.2-4.1
				c-0.3-2.9-1.4-5.5-2.8-8.1c-1.8-3.3-3.6-6.6-4-10.4c0-0.3-0.5-0.6-0.7-0.8c-0.2,0.3-0.7,0.7-0.7,1c0.5,2.3,0.8,4.6,1.6,6.8
				c1.1,2.8,2.5,5.5,3.8,8.3c0.3,0.6,0.4,1.2,0.6,1.8C84.6,154.3,84.5,154.4,84.3,154.5z M86.9,111c0.8-0.1,1.6-0.4,1.5-1.4
				c-0.1-1-0.8-1.3-1.7-1.2c-0.8,0-1.5,0.5-1.5,1.3C85.3,110.7,86.1,110.9,86.9,111z"/>
			<path class="st8" d="M126,33.8c-1,0.2-2,0.5-3,0.7c-0.1,0-0.2-0.1-0.3-0.1c-7.7-4-15.8-6.5-24.5-7c-22.7-1.5-41.5,6.6-56,24.1
				c-8.9,10.7-13.6,23.2-14.3,37.1c-0.9,17.9,4.7,33.6,16.5,47c0.8,0.9,0.8,0.9,1,4.2c-1.2-1.3-2.3-2.4-3.3-3.7
				c-12-14-17.5-30.3-16.3-48.7c2.1-30.8,24.9-56.1,55.3-61.4C96.9,23.3,111.9,26,126,33.8z"/>
			<path class="st7" d="M106.7,114.8c1.8,0,3.7,0,5.5,0c0.8,0,1.3-0.3,1.3-1.1c0-0.8,0.1-1.6-1.1-1.7c-1.1-0.1-2.3-0.4-3.4-0.7
				c-0.7-0.2-1.1-0.5-0.9-1.3c1.3-5.3,2.6-10.6,3.9-16c2.1,0.3,4.1,0.7,6.1,0.9c2.3,0.3,4.7,0.3,7,0.6c0.4,0,1,0.3,1.1,0.6
				c1,3,1.9,6,2.9,9c-1.5-0.1-3-0.3-4.5-0.5c-0.3,0-0.6-0.3-0.9-0.6c-0.9-0.8-1.8-1.8-2.8-2.5c-1.4-1.1-2.9-0.4-2.9,1.3
				c0,1.4,0.2,2.8,0.7,4.1c0.7,1.6,0.6,3.2,0.7,4.8c-0.6,0.1-1.2,0.1-1.8,0.2c0,0.1,0,0.2,0,0.3c0.6-0.1,1.2-0.2,1.7-0.3
				c0.1,0.7,0.3,1.3,0.4,2c-0.7,0.3-1.4,0.6-2.1,1c0,0.1,0.1,0.2,0.1,0.3c0.7-0.3,1.4-0.6,2.1-0.9c0,0,0.1,0.1,0.1,0.1
				c0,0-0.1,0.1,0,0.1c0,0.1,0.1,0.1,0.1,0.2c0.4,0.8,0.4,1.6,0.1,2.5c-0.4,0.9-0.7,1.9-0.9,2.8c-0.7,2.2-1.8,4.1-3.4,5.8
				c-3.1,3.3-5.6,7-7.1,11.3c-0.3,0.8-0.5,1.6-0.8,2.6c-0.7-1.7-0.9-3-0.1-4.6c1-2.2,2.5-4.3,2.3-6.9c-0.2-1.9-0.4-3.8-0.9-5.7
				C108.5,119.9,107.5,117.4,106.7,114.8z"/>
			<path class="st15" d="M79.8,111.9c-1.2-0.2-1.6-1.1-1.8-2.1c-0.2-1.2-0.3-2.4-0.3-3.7c0-6.1,0-12.2,0-18.4c0-0.2,0-0.5,0.1-0.7
				c3-0.7,22.8,4.2,27.9,5.7c-0.6,2.1-1.1,4.2-1.7,6.4c-0.3,1.1-0.7,2.1-1.1,3.2c-1.3-1-2.8-0.9-4.3-0.6c-0.6,0.1-1.3,0.1-1.9,0.1
				c-2.4,0-4.7,0-7.1,0c-0.6,0-1.2,0-1.8-0.2c-2.8-0.9-4-0.1-4.3,2.8c0,0.2,0,0.4-0.1,0.6C82.2,107.2,81,109.6,79.8,111.9z"/>
			<path class="st16" d="M56.5,114.3c-2.6-8.1-3.5-16.4-3.2-24.9c0-0.3,0.2-0.8,0.5-0.9c2.2-1,10-2.3,12.6-2c0,0.2,0.1,0.4,0.1,0.7
				c0,6.7,0,13.4,0,20.1c0,0.8-0.1,1.6-0.2,2.3c-0.3,1.7-1,2.3-2.8,2.6c-2.2-0.6-3.9,0.5-5.6,1.6C57.4,114,56.9,114.1,56.5,114.3z"
				/>
			<path class="st5" d="M133.3,41.4c-0.4-1.1-0.8-2.3-1.2-3.4c0.3,0.2,0.7,0.3,1,0.6c15.2,11.8,24.4,27.1,26.3,46.2
				c2.5,24.5-6.2,44.6-25.1,60.2c-0.2,0.2-0.4,0.3-0.6,0.4c-0.7-2-0.7-2,0.8-3.3c16.5-14.4,24.5-32.6,23.1-54.4
				c-1.2-18.5-9.3-33.7-23.5-45.6c-0.2-0.2-0.4-0.3-0.6-0.4c0,0,0,0,0,0C133.5,41.6,133.4,41.5,133.3,41.4z"/>
			<path class="st17" d="M121.9,114.1c0.4,1,0.6,2.2,1.9,2.7c0.2,0.1,0.5,0.6,0.5,0.9c-0.1,3.4-0.2,6.8-0.3,10.2
				c0,0.2-0.2,0.4-0.3,0.9c-0.6-0.5-1-0.8-1.5-1.2c-1.2-0.9-1.7-0.7-2.1,0.7c-0.9,3.7-1.3,7.5-0.7,11.3c0.8,4.9,1.8,9.8,2.7,14.7
				c0.3,1.4-0.1,1.8-1.5,1.7c0.6-3.1-0.7-5.9-1.4-8.7c-1-4.2-2.1-8.4-1.9-12.8c-3.2,2.7-4,4.5-2.9,8.4c0.6,2,1.5,3.8,2.3,5.7
				c0.4,1.1,0.8,2.2,0.9,3.3c0.1,0.8-0.3,1.6-0.6,2.5c-0.9-0.7-1.4-1.2-2-1.5c-0.6-0.3-1.4-0.2-2-0.5c-1.4-0.5-2.7-2.8-2.8-4.3
				c-0.2-1.8-0.6-3.6-0.9-5.4c-0.1-0.6-0.1-1.3,0-1.9c0.5-3.2,1.8-6.1,3.6-8.8c1-1.5,1.9-3.1,3.2-4.2c2.7-2.6,4-5.9,5-9.3
				c0.4-1.3,0.8-2.6,0.1-4C121.4,114.3,121.7,114.2,121.9,114.1z"/>
			<path class="st18" d="M45.4,124.7c0.3-1.7,0.5-3.4,0.9-5.1c0.2-0.8,0.4-1.3-0.3-2c-0.9-1.1-1.1-2.3-0.5-3.8c1.1,0.6,2,1.3,3,1.8
				c0.5,0.2,1.1,0.4,1.7,0.4c2.3-0.1,4.5-0.2,6.7-0.4c0.5,0,1-0.2,1.4-0.5c1-0.5,2-1.1,3-1.6c0.4-0.2,0.9-0.2,1.4,0
				c-0.9,0.5-1.9,1-2.7,1.6c-0.6,0.4-1,0.8-0.3,1.6c0.2,0.2,0.2,1,0,1.2c-0.7,0.7-1.5,1.6-2.4,1.9c-1.1,0.4-1.8,1-2.2,2.1
				c-0.4,1-0.7,2-1.1,3c-0.7,0-1.3,0.1-2,0.1c-0.1,0.1-0.2,0.3-0.2,0.4c0.6,0.4,1.2,0.7,1.8,1.1c0.7-0.9,1.9-1.3,3.3-1
				c0.2,0.1,0.3,0.2,0.5,0.2c-0.2,0.2-1-0.2-0.5,0.6c0,0.1,0,0.2,0,0.3c0.1,0.2,0.1,0.5,0.2,0.7c0,0.1,0,0.2,0,0.3
				c-0.4,0.1-0.9,0.2-1.3,0.2c-0.6,0-1.3,0.2-1.7-0.1c-0.8-0.5-1.3-0.4-2,0c-1,0.6-2.1,0.4-3.1-0.2c0.1-0.2,0.1-0.4,0.2-0.4
				c0.6-0.1,1.1-0.1,1.7-0.1c0.2-0.2,0.3-0.3,0.5-0.5c-0.4-0.2-0.8-0.5-1.2-0.7c0,0,0,0,0,0c0.1,0,0.3-0.1,0.4-0.1
				c0-0.1,0-0.2,0-0.2c-0.6-0.1-1.1-0.3-1.7-0.4C47.9,124.8,46.7,124.8,45.4,124.7z M50.1,120.7c-0.9-0.6-1.8-0.4-2.7,0
				c0.3,0.7,0.6,1.3,0.9,1.9c0.8,0.3,1.6,0.7,2.4,1c0.1-0.1,0.1-0.2,0.2-0.3c0.2,0.6,0.3,1.2,0.5,1.8c0.2,0,0.4-0.1,0.5-0.1
				c-0.2-1.5-0.3-3-0.5-4.5c-0.1,0-0.2,0-0.3,0c-0.2,0.2-0.4,0.5-0.5,0.7C50.5,121,50.3,120.9,50.1,120.7z"/>
			<path class="st7" d="M64.6,115.3c4,0,8,0,12.1,0c0.5,0,1,0.1,1.5,0.1c-0.9,2.5-1.8,5.1-2.7,7.6c-0.1,0.2-0.4,0.5-0.7,0.5
				c-3,0.4-6,0.7-9.1,1c-0.5-1-1.1-2.2-1.6-3.3c-0.2-0.4-0.2-0.9-0.1-1.3C64.1,118.4,64.3,116.9,64.6,115.3z"/>
			<path class="st18" d="M47.5,128.4c0.4,0.3,0.7,0.7,1.1,1c2.9,3,2.9,3,2.5,7.2c-0.1,1.5,0,3,0.2,4.5c0.1,0.9,0,1.5-0.6,2.1
				c-1.2,1.3-2.4,2.7-3.6,4c1,0,2.4,0.2,3.5-0.7c0.7-0.5,1.2-1.1,1.9-1.5c0.5-0.3,1.2-0.5,1.8-0.5c0.9,0,1.2,0.7,0.6,1.3
				c-1.4,1.6-2.8,3.2-5.3,2.9c-1.6-0.2-3.2,0.2-4.8,0.4c-1.1,0.1-1.4-0.1-1.1-1.4c-2.1,0.6-4.4-0.3-6.4,1.2
				c-0.5-1.1,0.2-2.4,1.6-2.6c1.3-0.1,2.6-0.1,3.9-0.2c0.4,0,0.9,0,1-0.2c1.3-1.4,2.5-2.9,3.7-4.4c0.1-0.2,0.1-0.6,0-0.8
				c-1.5-3.1-0.7-6,0.7-8.9c0.5-1,0.5-1.6-0.5-2.2c-0.6-0.4-0.9-1-1.4-1.6c0.1-0.2,0.2-0.3,0.3-0.5l-0.1,0.1c0,0,0.1,0,0.1,0
				C47,127.8,47.2,128.1,47.5,128.4z"/>
			<path class="st19" d="M122.4,21.4c1,0.4,1.7,0.7,2.5,1.1c0.1-1.3,0.2-2.5,0.3-3.6C124.2,19.7,123.4,20.5,122.4,21.4z"/>
			<path class="st12" d="M37.6,33.7c0.6,1.4,1.1,2.5,1.6,3.7c0.7-0.6,1.3-1.2,1.9-1.8C39.9,34.9,38.9,34.4,37.6,33.7z"/>
			<path class="st20" d="M121.3,109.5c0,0.1,0,0.1,0.1,0.2c0,0,0,0.1,0,0.1c-0.1,0.6-0.2,1.1-0.3,1.8c-0.2-0.2-0.3-0.5-0.4-0.7
				c0.3-2.3-1.2-4.3-1.3-6.6c0-0.7,0.2-1.4,0.3-2.1c0.6,0.3,1.4,0.5,1.7,0.9c1.6,2.2,3.8,2.7,6.4,3c2.2,0.2,3.9,0.1,5.5-1.4
				c0.6-0.6,1.6-0.9,2.5-1.3c0.4,1.6-1,4.8-2.7,6.9c-0.7-0.7-1.5-1.4-2.2-2.1c-2.7-2.6-6.8-2.4-9.2,0.4
				C121.4,108.9,121.3,109.2,121.3,109.5z"/>
			<path class="st20" d="M69.8,149.8c1,0.1,2,0.1,2.9,0.3c0.4,0.1,0.6,0.6,0.9,1c-0.4,0.1-0.7,0.4-1.1,0.4c-2.3,0.1-4.6-0.1-6.9,0.2
				c-5.7,0.9-9.7,5.2-10.7,11.1c0,0.1,0,0.2,0,0.2c-0.2,0.6,0.1,1.8-1,1.6c-1-0.2-0.6-1.1-0.5-1.8c1.1-7.6,6.6-12.6,14.3-13
				C68.5,149.9,69.1,149.9,69.8,149.8C69.8,149.9,69.8,149.8,69.8,149.8z"/>
			<path class="st17" d="M75.1,125.2c0,1.3,0,2.4,0,3.5c-3.2,1.1-3.8,1-7.5-2.7C70.1,125.7,72.5,125.5,75.1,125.2z"/>
			<path class="st5" d="M108.6,157.2c-0.1-2.4,1.7-2.8,3.3-3.2c1-0.3,2.1,0,3.2,0.9C112.7,155.7,110.6,156.5,108.6,157.2z"/>
			<path class="st20" d="M61,125.5c0.1-1.3,0.2-2.7,0.3-3.9c2.2,2.7,0.6,7.6-2.9,8.2c0.4-0.6,0.8-1.1,1.2-1.7c0,0,0,0,0,0
				c0.3-0.4,0.7-0.9,1-1.3c0,0,0-0.1,0-0.1l0,0c0.1-0.4,0.3-0.7,0.4-1.1C61,125.6,61,125.6,61,125.5z"/>
			<path class="st21" d="M46.7,127.6c-0.1,0.2-0.2,0.3-0.3,0.5c-0.3-0.8-0.7-1.6-1-2.4c0.3,0,0.5,0,0.8,0c0.5,0.1,1,0.1,1.5,0.2
				c1.3,0.2,2.6,0.4,3.9,0.5c-0.2,0.2-0.3,0.3-0.5,0.5c-0.9,0-1.8,0-2.7,0C47.7,126.9,46.7,125.9,46.7,127.6z"/>
			<path class="st21" d="M63.3,115c-0.4,1.4-0.7,2.7-1.2,4.1c-0.1,0.2-0.4,0.3-0.7,0.4c-0.1-0.2-0.3-0.4-0.2-0.6
				c0.5-1.3,1.1-2.7,1.7-4C63.1,114.9,63.2,114.9,63.3,115z"/>
			<path class="st21" d="M51.5,128.8c1.2-0.8,2.3-0.7,3.4,0.1C53.8,129.8,52.8,129.8,51.5,128.8z"/>
			<path class="st21" d="M94.4,110.6c-0.1-0.6-0.2-1.1-0.3-1.7c-0.1,0-0.3,0-0.4,0c-0.1,0.5-0.2,1.1-0.4,1.9c-0.3-0.5-0.8-1-0.7-1.2
				c0.2-0.4,0.8-0.9,1.2-0.9c0.5,0,1.1,0.4,1.4,0.8c0.1,0.2-0.3,0.8-0.5,1.3C94.6,110.7,94.5,110.6,94.4,110.6z"/>
			<path class="st21" d="M129.2,109.9c0.3,0.4,0.6,0.8,1,1.2c-0.4,0.3-0.8,0.7-1.3,0.7c-0.4,0-0.8-0.4-1.1-0.7
				c0.4-0.4,0.7-0.8,1.1-1.3c-0.1,0.4-0.1,0.8-0.2,1.2c0,0.2,0.1,0.4,0.1,0.8c0.2-0.4,0.3-0.6,0.4-0.8
				C129.2,110.7,129.2,110.3,129.2,109.9z"/>
			<path class="st21" d="M120.5,110.9c0.1,0.2,0.3,0.4,0.4,0.7c0.1-0.7,0.2-1.2,0.3-1.8c0.2,1.4,0.4,2.9,0.7,4.3
				c-0.2,0.1-0.5,0.2-0.7,0.3C121,113.2,120.8,112,120.5,110.9z"/>
			<path class="st20" d="M46.2,125.7c-0.3,0-0.5,0-0.8,0c0-0.1-0.1-0.1-0.1-0.2c0-0.1,0-0.2,0-0.3c0-0.1,0-0.2,0.1-0.2
				c1.2,0.1,2.3,0.2,3.5,0.2c0.5,0.2,1,0.4,1.5,0.5c0,0,0,0,0,0c-0.9,0-1.8,0-2.7,0.1C47.2,125.7,46.7,125.7,46.2,125.7z"/>
			<path class="st21" d="M122.4,108.5c0,0.5,0,1,0,1.5c0.1,0,0.2,0,0.3,0.1c0.1-0.4,0.3-0.8,0.5-1.6c0.2,0.6,0.6,0.9,0.5,1.3
				c0,0.3-0.6,0.7-0.8,0.7c-0.4-0.1-0.9-0.4-1.1-0.8c-0.2-0.3,0.1-0.8,0.2-1.3C122.1,108.5,122.2,108.5,122.4,108.5z"/>
			<path class="st3" d="M57.5,122.3c0-0.4,0-0.8,0-1.2c0.1,0,0.3-0.1,0.4-0.1c0.1,0.4,0.4,1,0.2,1.2c-0.3,0.3-0.8,0.5-1.3,0.5
				c-0.1,0-0.3-0.6-0.5-1c0.1-0.1,0.2-0.1,0.3-0.2c0.2,0.3,0.4,0.6,0.6,0.9C57.3,122.4,57.4,122.3,57.5,122.3z"/>
			<path class="st7" d="M128.1,113.9c-0.7-0.1-1.3-0.2-2-0.4c0.6-0.9,1.4-0.8,2.3-0.6c-0.2,0.1-0.3,0.2-0.5,0.2c-0.3,0-0.5,0-0.8,0
				c0,0.1,0,0.1,0,0.2c0.3,0,0.5,0,0.8,0l0,0c0.1,0.1,0.3,0.2,0.4,0.3C128.3,113.7,128.2,113.8,128.1,113.9z"/>
			<path class="st21" d="M124,112c0.4,0.1,0.9,0.2,1.3,0.3c0,0.1,0,0.2,0.1,0.3c-0.3,0.2-0.7,0.6-1,0.6c-0.2,0-0.4-0.6-0.6-0.9
				C123.9,112.2,124,112.1,124,112z"/>
			<path class="st6" d="M61,125.5c0,0.1,0,0.2-0.1,0.2c-1.1,0-2.3,0-3.4-0.1c-0.2-0.1-0.3-0.2-0.5-0.2
				C58.4,125.4,59.7,125.5,61,125.5z"/>
			<path class="st6" d="M48.9,125.1c-1.2-0.1-2.3-0.2-3.5-0.2c-0.1-0.1-0.1-0.1,0-0.2c1.3,0.1,2.5,0.1,3.8,0.2
				C49.1,125,49,125.1,48.9,125.1z"/>
			<path class="st6" d="M119.8,114.4c-0.7,0.3-1.4,0.6-2.1,0.9c0-0.1-0.1-0.2-0.1-0.3c0.7-0.3,1.4-0.6,2.1-1
				C119.8,114.2,119.8,114.3,119.8,114.4z"/>
			<path class="st6" d="M127.9,113.1c0.2-0.1,0.3-0.2,0.5-0.2c0.8,0.3,1.5,0.6,2.3,0.9c0,0.1-0.1,0.1-0.1,0.2
				c-0.9-0.2-1.8-0.4-2.6-0.6c0,0,0,0,0,0C127.9,113.3,127.9,113.2,127.9,113.1z"/>
			<path class="st4" d="M48.4,126.9c0.9,0,1.8,0,2.7,0c-0.6,0-1.1,0-1.7,0.1c-0.1,0-0.2,0.3-0.2,0.4
				C48.9,127.2,48.6,127.1,48.4,126.9z"/>
			<path class="st7" d="M127.8,114.9c-0.5-0.2-1-0.4-1.5-0.7c0.1-0.1,0.1-0.2,0.2-0.3c0.5,0.3,1,0.6,1.5,0.9
				C127.9,114.8,127.8,114.9,127.8,114.9z"/>
			<path class="st6" d="M128.1,113.9c0.1-0.1,0.1-0.1,0.2-0.2c0.5,0.3,1.1,0.6,1.6,0.9c0,0-0.1,0.1-0.1,0.1
				C129.3,114.4,128.7,114.1,128.1,113.9z"/>
			<path class="st2" d="M129.2,109.9c0,0.4,0,0.8,0,1.2c-0.2,0-0.4,0-0.5,0c0.1-0.4,0.1-0.8,0.2-1.2
				C129,109.9,129.1,109.9,129.2,109.9z"/>
			<path class="st6" d="M119.3,112.1c-0.6,0.1-1.2,0.2-1.7,0.3c0-0.1,0-0.2,0-0.3c0.6-0.1,1.2-0.1,1.8-0.2
				C119.3,111.9,119.3,112,119.3,112.1z"/>
			<path class="st6" d="M57.3,127.5c0-0.1,0-0.2,0-0.3c0.6,0.2,1.2,0.4,1.8,0.6c0,0.1-0.1,0.1-0.1,0.2
				C58.4,127.8,57.8,127.6,57.3,127.5z"/>
			<path class="st6" d="M129.7,116.5c0.3,0.3,0.6,0.6,0.9,1c-0.1,0.1-0.1,0.1-0.2,0.2c-0.3-0.4-0.5-0.7-0.8-1.1
				C129.6,116.5,129.7,116.5,129.7,116.5z"/>
			<path class="st21" d="M47.5,128.4c-0.2-0.3-0.5-0.5-0.7-0.8C47,127.8,47.2,128.1,47.5,128.4z"/>
			<path class="st6" d="M131.4,114.5c-0.2-0.1-0.3-0.2-0.5-0.3c0-0.1,0.1-0.1,0.1-0.2c0.2,0.1,0.3,0.2,0.5,0.3
				C131.5,114.4,131.4,114.5,131.4,114.5z"/>
			<path class="st6" d="M129.9,114.5c0.2,0.2,0.5,0.4,0.7,0.5l0,0C130.4,114.9,130.1,114.8,129.9,114.5
				C129.9,114.6,129.9,114.6,129.9,114.5z"/>
			<path class="st6" d="M130.6,115.1c0.2,0.1,0.4,0.2,0.6,0.2c0,0.1-0.1,0.1-0.1,0.2C131,115.3,130.8,115.2,130.6,115.1
				C130.6,115.1,130.6,115.1,130.6,115.1z"/>
			<path class="st6" d="M128.3,115.4c-0.1-0.1-0.3-0.2-0.4-0.3c0.1-0.1,0.2-0.1,0.2-0.2c0.1,0.1,0.3,0.2,0.4,0.3
				C128.4,115.3,128.4,115.3,128.3,115.4z"/>
			<path class="st4" d="M44.7,128.7c-0.1-0.1-0.1-0.3-0.2-0.4c0-0.1,0-0.3,0-0.4C44.6,128.1,44.6,128.4,44.7,128.7L44.7,128.7z"/>
			<path class="st21" d="M121.3,109.5c0.1-0.3,0.1-0.6,0.2-0.9C121.4,108.9,121.3,109.2,121.3,109.5z"/>
			<path class="st6" d="M46.4,130.6c0.1,0.1,0.3,0.2,0.4,0.3c-0.1,0-0.1,0.1-0.2,0.1C46.6,130.9,46.5,130.8,46.4,130.6L46.4,130.6z"
				/>
			<path class="st6" d="M129.6,116.6c-0.2-0.2-0.3-0.3-0.5-0.5c0,0,0.1-0.1,0.1-0.1c0.2,0.2,0.3,0.3,0.5,0.5
				C129.7,116.5,129.6,116.5,129.6,116.6z"/>
			<path class="st6" d="M59.5,128.1c-0.2,0-0.4-0.1-0.6-0.1c0-0.1,0.1-0.1,0.1-0.2C59.2,127.9,59.4,128.1,59.5,128.1L59.5,128.1z"/>
			<path class="st6" d="M128.5,115.2c0.1,0.1,0.2,0.2,0.3,0.2c-0.1,0.1-0.1,0.1-0.2,0.2c-0.1-0.1-0.2-0.2-0.3-0.2
				C128.4,115.3,128.4,115.3,128.5,115.2z"/>
			<path class="st7" d="M128.1,114.9c-0.1,0.1-0.2,0.1-0.2,0.2c-0.1,0-0.1-0.1-0.1-0.2c0,0,0.1,0,0.1-0.1
				C128,114.8,128.1,114.8,128.1,114.9z"/>
			<path class="st6" d="M128.9,115.8c-0.1-0.1-0.2-0.2-0.3-0.2c0.1-0.1,0.1-0.1,0.2-0.2c0.1,0.1,0.2,0.2,0.2,0.3
				C128.9,115.7,128.9,115.8,128.9,115.8z"/>
			<path class="st4" d="M44.7,128.6c0.1,0.1,0.2,0.2,0.2,0.3c0,0-0.1,0.1-0.1,0.1C44.8,128.8,44.7,128.8,44.7,128.6
				C44.7,128.7,44.7,128.6,44.7,128.6z"/>
			<path class="st4" d="M45,128.9c0,0,0.1,0.1,0.1,0.1C45,129,45,128.9,45,128.9C44.9,128.9,45,128.9,45,128.9z"/>
			<path class="st4" d="M46.2,130.4c0,0-0.1-0.1-0.1-0.1C46.1,130.3,46.1,130.3,46.2,130.4C46.2,130.3,46.2,130.3,46.2,130.4
				C46.2,130.4,46.2,130.4,46.2,130.4z"/>
			<path class="st6" d="M46.4,130.6c-0.1-0.1-0.2-0.2-0.2-0.2c0,0,0,0,0,0C46.3,130.5,46.3,130.5,46.4,130.6
				C46.4,130.6,46.4,130.6,46.4,130.6z"/>
			<path class="st6" d="M120,114.8c0-0.1-0.1-0.1-0.1-0.2c0,0,0-0.1,0-0.1C120,114.6,120,114.7,120,114.8z"/>
			<path class="st6" d="M129,115.7c0.1,0.1,0.2,0.2,0.2,0.3c0,0-0.1,0.1-0.1,0.1c-0.1-0.1-0.2-0.2-0.3-0.2
				C128.9,115.8,128.9,115.7,129,115.7z"/>
			<path class="st5" d="M132.1,38c-0.1-0.1-0.2-0.2-0.2-0.3C132,37.8,132,37.9,132.1,38z"/>
			<path class="st6" d="M122.7,34.5c0.1,0,0.2,0.1,0.3,0.1c-0.1,0-0.1,0-0.2,0C122.7,34.6,122.7,34.5,122.7,34.5z"/>
			<path class="st13" d="M44.5,127.9c0,0.1,0,0.3,0,0.4c-0.1-0.1-0.2-0.3-0.2-0.4c0,0,0,0,0,0C44.3,127.9,44.4,127.9,44.5,127.9z"/>
			<path class="st6" d="M45.4,125.1c0,0.1,0,0.2,0,0.3C45.4,125.4,45.4,125.3,45.4,125.1z"/>
			<path class="st3" d="M127,173.3c0.4-1.5,0.7-3,1.2-4.5c0.1-0.4,0.6-0.6,1-0.9c0.2,0.4,0.7,0.9,0.7,1.3c-0.2,1.7-0.5,3.4-0.9,5
				c-0.1,0.4-0.7,0.7-1.1,1.1c-0.2-0.5-0.4-1-0.6-1.5c-0.1-0.1,0-0.3,0-0.5C127.1,173.3,127,173.3,127,173.3z"/>
			<path class="st12" d="M133.3,41.4c0.1,0.1,0.2,0.2,0.3,0.3C133.5,41.6,133.4,41.5,133.3,41.4z"/>
			<path class="st4" d="M86.9,111c-0.8-0.1-1.6-0.4-1.6-1.3c0-0.9,0.6-1.3,1.5-1.3c0.9,0,1.6,0.2,1.7,1.2
				C88.5,110.6,87.8,110.9,86.9,111z M87.3,110.3c0.1,0,0.3,0,0.4,0c0-0.4,0-0.8,0-1.2c-0.6,0-1.1,0-1.7,0.1c-0.1,0,0,0.7,0,1.1
				c0.1,0,0.2,0,0.3,0c0.2-0.4,0.3-0.8,0.5-1.1c0.1,0,0.2,0,0.3,0.1C87.1,109.5,87.2,109.9,87.3,110.3z"/>
			<path class="st2" d="M50.6,121.2c0.2-0.2,0.4-0.5,0.5-0.7c0.1,0,0.2,0,0.3,0c0.2,1.5,0.3,3,0.5,4.5c-0.2,0-0.4,0.1-0.5,0.1
				c-0.2-0.6-0.3-1.2-0.5-1.8c-0.1,0.1-0.1,0.2-0.2,0.3c-0.8-0.3-1.6-0.7-2.4-1c0.1-0.1,0.2-0.2,0.3-0.2c0.4,0.1,0.9,0.3,1.3,0.2
				c0.2,0,0.2-0.7,0.3-1.1C50.4,121.4,50.5,121.3,50.6,121.2z"/>
			<path class="st10" d="M59.5,128.2c-0.1-0.1-0.3-0.2-0.4-0.3c-0.6-0.2-1.2-0.4-1.8-0.6c-0.1-0.2-0.1-0.5-0.2-0.7c0.5,0,1,0,1.5,0
				c0.7,0.2,1.3,0.3,2,0.5C60.2,127.3,59.9,127.7,59.5,128.2z"/>
			<path class="st2" d="M48.4,122.6c-0.3-0.6-0.6-1.2-0.9-1.9c0.9-0.4,1.8-0.6,2.7,0c-0.3,0.1-0.5,0.2-0.8,0.3
				c-0.1,0.1-0.1,0.2-0.2,0.2l0,0c-1,0.1-0.5,0.7-0.4,1.2C48.6,122.5,48.5,122.5,48.4,122.6z"/>
			<path class="st1" d="M57.5,125.6c1.1,0,2.3,0,3.4,0.1c-0.1,0.4-0.3,0.7-0.4,1.1c-0.7-0.2-1.4-0.4-2-0.6c-0.5,0-1,0-1.5,0
				C56.5,125.4,57.3,125.8,57.5,125.6z"/>
			<path class="st4" d="M47.7,125.7c0.9,0,1.8,0,2.7-0.1c0.4,0.2,0.8,0.5,1.2,0.7c-1.3-0.2-2.6-0.4-3.9-0.5
				C47.7,125.8,47.7,125.7,47.7,125.7z"/>
			<path class="st4" d="M49.3,121c0.3-0.1,0.5-0.2,0.8-0.3c0.2,0.2,0.3,0.3,0.5,0.5c-0.1,0.1-0.2,0.2-0.3,0.3c-0.1,0-0.4-0.1-0.4,0
				c-0.2,0.3-0.4,0.6-0.5,0.8c-0.1-0.4-0.2-0.7-0.3-1.1c0,0,0,0,0,0C49.2,121.2,49.3,121.1,49.3,121z"/>
			<path class="st4" d="M48.9,125.1c0.1-0.1,0.2-0.2,0.3-0.3c0.6,0.1,1.1,0.3,1.7,0.4c0,0.1,0,0.2,0,0.2c-0.1,0-0.3,0.1-0.4,0.1
				C49.9,125.5,49.4,125.3,48.9,125.1z"/>
			<path class="st7" d="M57,126.2c0.5,0,1,0,1.5,0c0,0.1,0,0.1,0,0.2c-0.5,0-1,0-1.5,0C57.1,126.4,57,126.3,57,126.2z"/>
			<path class="st10" d="M96.1,15c0.1-1.7,0.2-3.2,0.3-4.8c1.2-0.2,2.3-0.1,3,1c0.7,1,0.6,2.1,0,3.1C98.6,15.4,97.4,15.1,96.1,15z"
				/>
			<path class="st12" d="M168.1,103.8c0.9,0.2,2,0.4,3,0.8c1.9,0.8,2.7,2.3,2.5,4.2c-0.2,1.8-1.5,3.3-3.5,3.5
				c-1.6,0.1-3.3-0.1-4.8-0.5c-1.9-0.6-2.8-2.1-2.7-4c0.1-1.8,1.3-3.2,3.1-3.7C166.5,103.9,167.2,103.9,168.1,103.8z"/>
			<path class="st1" d="M156.5,41.2c0,2.7-3.3,6-6,6.2c-2.5,0.1-4.6-2.4-4-4.9c0.6-2.5,2.3-4.3,4.7-5.1
				C153.8,36.4,156.6,38.5,156.5,41.2z"/>
			<path class="st10" d="M19.9,68.3c-1-0.8-1.9-1.6-3-2.4c1.4,0,2.5,0,3.8,0C20.4,66.7,20.2,67.4,19.9,68.3z"/>
			<path class="st2" d="M122.4,21.4c1-0.9,1.9-1.7,2.8-2.5c-0.1,1.1-0.2,2.3-0.3,3.6C124.1,22.2,123.4,21.8,122.4,21.4z"/>
			<path class="st2" d="M167.3,73.7c1.4,0.2,2.5,0.3,4,0.5c-1.3,0.8-2.2,1.3-3.4,2C167.7,75.4,167.5,74.7,167.3,73.7z"/>
			<path class="st6" d="M58.5,126.4c0-0.1,0-0.1,0-0.2c0.7,0.2,1.4,0.4,2,0.6c0,0,0,0,0,0s0,0.1,0,0.1
				C59.9,126.7,59.2,126.6,58.5,126.4z"/>
			<path class="st6" d="M47.7,125.7c0,0,0,0.1,0,0.1c-0.5-0.1-1-0.1-1.5-0.2C46.7,125.7,47.2,125.7,47.7,125.7z"/>
			<path class="st1" d="M128.6,111.1c0.2,0,0.4,0,0.5,0c-0.1,0.2-0.2,0.4-0.4,0.8C128.7,111.5,128.7,111.3,128.6,111.1z"/>
			<path class="st12" d="M127.9,113.1c0,0.1,0.1,0.1,0,0.2c-0.3,0-0.5,0-0.8,0c0-0.1,0-0.1,0-0.2
				C127.3,113.1,127.6,113.1,127.9,113.1z"/>
			<path class="st21" d="M87.3,110.3c-0.1-0.4-0.1-0.8-0.2-1.1c-0.1,0-0.2,0-0.3-0.1c-0.2,0.4-0.3,0.8-0.5,1.1c-0.1,0-0.2,0-0.3,0
				c0-0.4-0.1-1,0-1.1c0.5-0.1,1.1-0.1,1.7-0.1c0,0.4,0,0.8,0,1.2C87.6,110.3,87.4,110.3,87.3,110.3z"/>
			<path class="st21" d="M49.1,121.2c0.1,0.4,0.2,0.7,0.3,1.1c0.2-0.3,0.3-0.6,0.5-0.8c0-0.1,0.3,0,0.4,0c-0.1,0.4-0.1,1.1-0.3,1.1
				c-0.4,0.1-0.9-0.1-1.3-0.2C48.7,121.9,48.2,121.3,49.1,121.2z"/>
			<path class="st21" d="M49.3,121c-0.1,0.1-0.1,0.2-0.2,0.2C49.2,121.2,49.3,121.1,49.3,121z"/>
		</g>
	</g>
</g>
</svg>
