<?xml version="1.0" encoding="utf-8"?>
<!-- Generator: Adobe Illustrator 22.0.0, SVG Export Plug-In . SVG Version: 6.00 Build 0)  -->
<svg version="1.1" id="Livello_1" xmlns="http://www.w3.org/2000/svg" xmlns:xlink="http://www.w3.org/1999/xlink" x="0px" y="0px"
	 viewBox="0 0 799.4 800" style="enable-background:new 0 0 799.4 800;" xml:space="preserve">
<style type="text/css">
	.st0{display:none;}
	.st1{display:inline;fill:#EEF2F5;}
	.st2{fill:#FFFFFF;}
</style>
<g id="BACKGROUND" class="st0">
	<rect y="0" class="st1" width="800" height="800"/>
</g>
<g id="OBJECTS">
	<g>
		<g>
			<g>
				<g>
					<path class="st2" d="M398.2,780.5v-39c145.2,0,263.3-118.1,263.3-263.3V302.6c0-145.2-118.1-263.3-263.3-263.3
						S134.9,157.5,134.9,302.6v175.5h-39V302.6C95.9,135.9,231.5,0.3,398.2,0.3s302.3,135.6,302.3,302.3v175.5
						C700.5,644.9,564.9,780.5,398.2,780.5z"/>
				</g>
			</g>
			<g>
				<g>
					<path class="st2" d="M172.3,303.2c-3.8-0.3-7.6-0.6-11.4-0.6C72,302.6,0,374.7,0,463.6v29.3c0,88.9,72,160.9,160.9,160.9
						c3.8,0,7.6-0.3,11.4-0.6L172.3,303.2L172.3,303.2z"/>
				</g>
			</g>
			<g>
				<g>
					<path class="st2" d="M624.1,303.2c3.8-0.3,7.6-0.6,11.4-0.6c88.9,0,160.9,72,160.9,160.9v29.3c0,88.9-72,160.9-160.9,160.9
						c-3.8,0-7.6-0.3-11.4-0.6V303.2z"/>
				</g>
			</g>
			<g>
				<g>
					<path class="st2" d="M495.7,756.1c0,24.2-19.6,43.9-43.9,43.9H344.6c-24.2,0-43.9-19.6-43.9-43.9l0,0
						c0-24.2,19.6-43.9,43.9-43.9h107.3C476.1,712.2,495.7,731.9,495.7,756.1L495.7,756.1z"/>
				</g>
			</g>
		</g>
	</g>
	<g>
		<path class="st2" d="M410.4,530.7l29.2-50.6c10-17.2-2.5-38.8-22.4-38.8h-58.4c-19.9,0-32.3,21.5-22.4,38.8l29.2,50.6
			C375.6,547.9,400.4,547.9,410.4,530.7z"/>
	</g>
	<g>
		<path class="st2" d="M315,498l-126-6l126-6c3.3-0.2,6.1,2.4,6.3,5.7c0.2,3.3-2.4,6.1-5.7,6.3C315.4,498,315.2,498,315,498z"/>
	</g>
	<g>
		<line class="st2" x1="314.2" y1="462.2" x2="189.8" y2="439.8"/>
		<path class="st2" d="M313.2,468.1l-123.4-28.2l125.5,16.4c3.3,0.4,5.6,3.4,5.2,6.7c-0.4,3.3-3.4,5.6-6.7,5.2
			C313.5,468.2,313.3,468.1,313.2,468.1z"/>
	</g>
	<g>
		<line class="st2" x1="314.2" y1="521.8" x2="189.8" y2="544.2"/>
		<path class="st2" d="M315.3,527.7l-125.5,16.4l123.4-28.2c3.2-0.7,6.5,1.3,7.2,4.5s-1.3,6.5-4.5,7.2
			C315.7,527.7,315.5,527.7,315.3,527.7z"/>
	</g>
	<g>
		<line class="st2" x1="461" y1="492" x2="587" y2="492"/>
		<path class="st2" d="M461,486l126,6l-126,6c-3.3,0.2-6.1-2.4-6.3-5.7c-0.2-3.3,2.4-6.1,5.7-6.3C460.6,486,460.8,486,461,486z"/>
	</g>
	<g>
		<line class="st2" x1="461.8" y1="462.2" x2="586.2" y2="439.8"/>
		<path class="st2" d="M460.7,456.3l125.5-16.4l-123.4,28.2c-3.2,0.7-6.5-1.3-7.2-4.5s1.3-6.5,4.5-7.2
			C460.3,456.3,460.5,456.3,460.7,456.3z"/>
	</g>
	<g>
		<line class="st2" x1="461.8" y1="521.8" x2="586.2" y2="544.2"/>
		<path class="st2" d="M462.8,515.9l123.4,28.2l-125.5-16.4c-3.3-0.4-5.6-3.4-5.2-6.7s3.4-5.6,6.7-5.2
			C462.5,515.8,462.7,515.9,462.8,515.9z"/>
	</g>
</g>
<g id="DESIGNED_BY_FREEPIK">
</g>
</svg>
