<?xml version="1.0" encoding="utf-8"?>
<!-- Generator: Adobe Illustrator 22.0.0, SVG Export Plug-In . SVG Version: 6.00 Build 0)  -->
<svg version="1.1" id="Livello_2_1_" xmlns="http://www.w3.org/2000/svg" xmlns:xlink="http://www.w3.org/1999/xlink" x="0px"
	 y="0px" viewBox="0 0 234.9 186.1" style="enable-background:new 0 0 234.9 186.1;" xml:space="preserve">
<style type="text/css">
	.st0{fill:#FFFFFF;}
</style>
<title>expoicon-01</title>
<path class="st0" d="M29.5,102c-1.7-6,0.1-12.5,4.8-16.6c4.7-4,7.7-9.5,8.5-15.6c0.2-1.3,0.5-2.6,0.9-3.8C45,60.3,49.3,55.7,55,54
	c4.2-1.6,8.7-2,13.1-1c2.9,0.8,5.5,2.4,7.5,4.7c2,2.3,4.1,4.6,6.1,7c1.9,2.4,4.5,4.1,7.4,5.1c1.9,0.7,3.9,1.3,5.8,2
	c11.1,4,13.7,18.3,8.3,26.5c-2.7,4.3-7.7,6.7-12.8,6c-2.5-0.1-4.9-0.6-7.2-1.5c-6.4-2.5-13.6-2-19.7,1.3c-2.5,1.4-4.6,3.2-6.4,5.4
	c-2.1,2.3-4.7,4.1-7.6,5.2c-6.1,2.2-12.9-0.1-16.4-5.5C31.4,107.1,30.1,104.6,29.5,102z"/>
<path class="st0" d="M21.8,30.4c-1.3-4.4-1.2-9,0.3-13.3c1.5-4.5,6.3-7,10.8-5.6c0.1,0,0.1,0,0.2,0.1c0.4,0.1,0.8,0.3,1.2,0.5
	c3.2,1.5,5.9,4,7.8,7c3.8,5.2,5.6,11.7,4.9,18.1c-0.1,1.1-0.4,2.2-0.7,3.3c-1.2,4.8-6.1,7.8-10.9,6.6c0,0,0,0,0,0
	c-1.1-0.3-2.1-0.8-3.1-1.4c-4.1-2.6-7.3-6.4-9.2-10.9C22.6,33.4,22.1,31.9,21.8,30.4z"/>
<path class="st0" d="M79.6,15.9c1.2,4.8,1.1,9.8-0.4,14.5c-0.9,3.3-3,6.2-5.8,8.2c-2.7,1.6-6.1,1.7-8.9,0.1c-3-1.9-5.3-4.8-6.5-8.2
	c-3-6.9-2.9-14.8,0.3-21.6c0.6-1.2,1.3-2.3,2.2-3.3c2.9-3.7,8.4-4.4,12.1-1.4c0,0,0,0,0,0c0.2,0.2,0.4,0.4,0.6,0.5
	c2.9,2.6,5,6,6,9.8C79.4,14.9,79.5,15.4,79.6,15.9z"/>
<path class="st0" d="M27.9,60.3c0.9,3.4,0.9,6.9-0.1,10.3c-1,4.8-5.7,7.8-10.4,6.8c0,0,0,0-0.1,0c-0.8-0.2-1.6-0.4-2.3-0.8
	c-4.4-2-8-5.4-10.3-9.7c-3-5-4.2-10.9-3.2-16.6c0.4-4,3.4-7.3,7.4-8.1c2.9-0.4,5.8,0.3,8.2,1.9c4.4,3,7.8,7.2,9.7,12.2
	C27.1,57.7,27.5,59,27.9,60.3z"/>
<path class="st0" d="M87.6,45.1c-1.2-5.7-0.5-11.5,1.9-16.8c0.7-1.4,1.6-2.7,2.6-3.9c3-3.9,8.5-4.6,12.4-1.7c0.6,0.5,1.1,1,1.6,1.6
	c2.7,3,4.4,6.7,4.9,10.7c1.1,5.6,0.4,11.4-2.2,16.5c-0.9,1.6-2,3.1-3.3,4.4c-3.2,3.4-8.5,3.5-11.9,0.3c0,0-0.1-0.1-0.1-0.1l-0.2-0.2
	C90.3,53,88.3,49.2,87.6,45.1z"/>
<path class="st0" d="M129.9,146.7c1.8-5.9,6.9-10.3,13-11.3c6.1-0.8,11.6-3.7,15.6-8.4c0.9-1,1.9-1.9,2.9-2.7
	c4.2-4.1,10.4-5.6,16-3.9c4.4,0.9,8.4,3.1,11.5,6.3c2,2.2,3.3,5,3.7,8c0.5,3,0.9,6.1,1.3,9.2c0.3,3,1.5,5.9,3.4,8.3
	c1.3,1.6,2.5,3.2,3.7,4.8c7.1,9.4,1.5,22.8-7.5,26.7c-4.7,2.1-10.1,1.3-14-2c-2-1.4-3.8-3.2-5.2-5.2c-4-5.6-10.4-9.2-17.3-9.7
	c-2.8-0.2-5.6,0.1-8.3,1c-3,0.8-6.2,0.9-9.2,0.2c-6.3-1.5-10.7-7.1-10.7-13.5C128.6,151.9,129,149.2,129.9,146.7z"/>
<path class="st0" d="M162.6,82.6c1.3-4.3,3.9-8.2,7.5-10.9c3.8-3,9.3-2.4,12.3,1.4c0,0,0,0,0,0c0.3,0.3,0.5,0.7,0.7,1.1
	c1.9,3,2.8,6.5,2.7,10.1c0.3,6.4-1.7,12.8-5.8,17.8c-0.7,0.9-1.5,1.6-2.4,2.3c-3.6,3.4-9.3,3.2-12.7-0.4c-0.8-0.8-1.4-1.8-1.8-2.9
	c-2.1-4.4-2.7-9.3-1.7-14.1C161.6,85.5,162,84,162.6,82.6z"/>
<path class="st0" d="M218.9,102c-1.6,4.7-4.5,8.8-8.3,11.9c-2.6,2.3-5.9,3.6-9.3,3.7c-3.2-0.1-6.1-2-7.5-4.8
	c-1.5-3.2-1.9-6.9-1-10.4c1.3-7.4,5.7-13.9,12.1-17.9c1.1-0.7,2.4-1.2,3.7-1.5c4.5-1.5,9.4,0.9,10.9,5.4c0.1,0.3,0.2,0.5,0.2,0.8
	c1,3.8,0.9,7.8-0.3,11.5C219.2,101.1,219,101.6,218.9,102z"/>
<path class="st0" d="M151.3,111c-1.1,3.3-3.1,6.3-5.7,8.6c-3.5,3.5-9,3.5-12.5,0c-0.6-0.5-1.1-1.2-1.4-1.9
	c-2.6-4.1-3.8-8.9-3.3-13.7c0.1-5.9,2.3-11.5,6.3-15.8c2.6-3.2,6.9-4.3,10.7-2.7c2.6,1.2,4.7,3.4,5.8,6.1c2.1,4.9,2.6,10.3,1.5,15.5
	C152.1,108.3,151.6,109.7,151.3,111z"/>
<path class="st0" d="M209.6,130.8c2.1-5.4,5.9-10,10.8-13c1.3-0.8,2.8-1.4,4.3-1.8c4.6-1.6,9.6,0.8,11.3,5.4
	c0.2,0.7,0.4,1.5,0.5,2.2c0.6,4,0,8.1-1.8,11.7c-2.1,5.3-6,9.7-10.9,12.6c-1.6,0.9-3.4,1.5-5.2,1.9c-4.6,1-9.1-1.8-10.2-6.4
	c0-0.1,0-0.2-0.1-0.3C207.5,139,207.9,134.7,209.6,130.8z"/>
</svg>
