<svg id="Livello_2" data-name="Livello 2" xmlns="http://www.w3.org/2000/svg" viewBox="0 0 234.9 186.1"><defs><style>.cls-1{fill:#daa520;}</style></defs><title>expoicon-01</title><path class="cls-1" d="M29.5,102a16.22,16.22,0,0,1,4.8-16.6,24.58,24.58,0,0,0,8.5-15.6,23.39,23.39,0,0,1,.9-3.8A16.35,16.35,0,0,1,55,54a22.55,22.55,0,0,1,13.1-1,15.26,15.26,0,0,1,7.5,4.7c2,2.3,4.1,4.6,6.1,7a16,16,0,0,0,7.4,5.1c1.9.7,3.9,1.3,5.8,2,11.1,4,13.7,18.3,8.3,26.5a13.05,13.05,0,0,1-12.8,6,22,22,0,0,1-7.2-1.5,23.41,23.41,0,0,0-19.7,1.3,22.19,22.19,0,0,0-6.4,5.4,19.87,19.87,0,0,1-7.6,5.2,13.92,13.92,0,0,1-16.4-5.5A17.48,17.48,0,0,1,29.5,102Z"/><path class="cls-1" d="M21.8,30.4a21.58,21.58,0,0,1,.3-13.3,8.61,8.61,0,0,1,11-5.5,6.12,6.12,0,0,1,1.2.5,18.82,18.82,0,0,1,7.8,7A26,26,0,0,1,47,37.2a19.42,19.42,0,0,1-.7,3.3,9,9,0,0,1-10.9,6.6,10.91,10.91,0,0,1-3.1-1.4,23.88,23.88,0,0,1-9.2-10.9A37.29,37.29,0,0,1,21.8,30.4Z"/><path class="cls-1" d="M79.6,15.9a26.47,26.47,0,0,1-.4,14.5,15,15,0,0,1-5.8,8.2,8.85,8.85,0,0,1-8.9.1A16,16,0,0,1,58,30.5a26.25,26.25,0,0,1,.3-21.6,14.61,14.61,0,0,1,2.2-3.3A8.6,8.6,0,0,1,72.6,4.2a2.65,2.65,0,0,0,.6.5,20,20,0,0,1,6,9.8A5.73,5.73,0,0,1,79.6,15.9Z"/><path class="cls-1" d="M27.9,60.3a19,19,0,0,1-.1,10.3,8.82,8.82,0,0,1-10.5,6.8,10.5,10.5,0,0,1-2.3-.8A22,22,0,0,1,4.7,66.9,24,24,0,0,1,1.5,50.3a9.23,9.23,0,0,1,7.4-8.1,11.84,11.84,0,0,1,8.2,1.9,25.42,25.42,0,0,1,9.7,12.2C27.1,57.7,27.5,59,27.9,60.3Z"/><path class="cls-1" d="M87.6,45.1a26.91,26.91,0,0,1,1.9-16.8,20.38,20.38,0,0,1,2.6-3.9,8.9,8.9,0,0,1,12.4-1.7,8.08,8.08,0,0,1,1.6,1.6A19.56,19.56,0,0,1,111,35a25.44,25.44,0,0,1-2.2,16.5,20.26,20.26,0,0,1-3.3,4.4,8.42,8.42,0,0,1-12,.2l-.2-.2A19,19,0,0,1,87.6,45.1Z"/><path class="cls-1" d="M129.9,146.7a16.39,16.39,0,0,1,13-11.3,24.45,24.45,0,0,0,15.6-8.4,24.43,24.43,0,0,1,2.9-2.7,16.21,16.21,0,0,1,16-3.9,22.19,22.19,0,0,1,11.5,6.3,14.82,14.82,0,0,1,3.7,8c.5,3,.9,6.1,1.3,9.2a16,16,0,0,0,3.4,8.3c1.3,1.6,2.5,3.2,3.7,4.8,7.1,9.4,1.5,22.8-7.5,26.7a13.24,13.24,0,0,1-14-2,23.32,23.32,0,0,1-5.2-5.2,23.45,23.45,0,0,0-17.3-9.7,21.31,21.31,0,0,0-8.3,1,19.1,19.1,0,0,1-9.2.2,13.89,13.89,0,0,1-10.7-13.5A19,19,0,0,1,129.9,146.7Z"/><path class="cls-1" d="M162.6,82.6a21.35,21.35,0,0,1,7.5-10.9,8.74,8.74,0,0,1,12.3,1.4,4.13,4.13,0,0,1,.7,1.1,18.28,18.28,0,0,1,2.7,10.1,26,26,0,0,1-5.8,17.8,13.08,13.08,0,0,1-2.4,2.3,9,9,0,0,1-12.7-.4,7.89,7.89,0,0,1-1.8-2.9A22.18,22.18,0,0,1,161.4,87,15.93,15.93,0,0,1,162.6,82.6Z"/><path class="cls-1" d="M218.9,102a26.31,26.31,0,0,1-8.3,11.9,14.71,14.71,0,0,1-9.3,3.7,8.75,8.75,0,0,1-7.5-4.8,15.56,15.56,0,0,1-1-10.4,26.54,26.54,0,0,1,12.1-17.9,12,12,0,0,1,3.7-1.5,8.61,8.61,0,0,1,10.9,5.4,2.35,2.35,0,0,1,.2.8,20.45,20.45,0,0,1-.3,11.5A8.93,8.93,0,0,0,218.9,102Z"/><path class="cls-1" d="M151.3,111a20,20,0,0,1-5.7,8.6,8.84,8.84,0,0,1-12.5,0,6.22,6.22,0,0,1-1.4-1.9,21.43,21.43,0,0,1-3.3-13.7,23.87,23.87,0,0,1,6.3-15.8,9.13,9.13,0,0,1,10.7-2.7,11.53,11.53,0,0,1,5.8,6.1,25.75,25.75,0,0,1,1.5,15.5A20.32,20.32,0,0,0,151.3,111Z"/><path class="cls-1" d="M209.6,130.8a26.51,26.51,0,0,1,10.8-13,16.32,16.32,0,0,1,4.3-1.8,8.92,8.92,0,0,1,11.3,5.4,14.19,14.19,0,0,1,.5,2.2,19.66,19.66,0,0,1-1.8,11.7,25.36,25.36,0,0,1-10.9,12.6,19.08,19.08,0,0,1-5.2,1.9,8.56,8.56,0,0,1-10.2-6.4.37.37,0,0,0-.1-.3A20.64,20.64,0,0,1,209.6,130.8Z"/></svg>