<?xml version="1.0" encoding="utf-8"?>
<!-- Generator: Adobe Illustrator 22.0.0, SVG Export Plug-In . SVG Version: 6.00 Build 0)  -->
<svg version="1.1" xmlns="http://www.w3.org/2000/svg" xmlns:xlink="http://www.w3.org/1999/xlink" x="0px" y="0px"
	 viewBox="0 0 537.8 79.2" style="enable-background:new 0 0 537.8 79.2;" xml:space="preserve">
<style type="text/css">
	.st0{fill:url(#SVGID_1_);stroke:#BBBBBB;stroke-width:0.75;stroke-linecap:round;stroke-linejoin:round;stroke-miterlimit:10;}
	.st1{fill:url(#SVGID_2_);stroke:#BBBBBB;stroke-width:0.75;stroke-linecap:round;stroke-linejoin:round;stroke-miterlimit:10;}
	.st2{fill:url(#SVGID_3_);stroke:#BBBBBB;stroke-width:0.75;stroke-linecap:round;stroke-linejoin:round;stroke-miterlimit:10;}
	.st3{fill:url(#SVGID_4_);stroke:#BBBBBB;stroke-width:0.75;stroke-linecap:round;stroke-linejoin:round;stroke-miterlimit:10;}
	.st4{fill:url(#SVGID_5_);stroke:#BBBBBB;stroke-width:0.75;stroke-linecap:round;stroke-linejoin:round;stroke-miterlimit:10;}
	.st5{fill:url(#SVGID_6_);stroke:#BBBBBB;stroke-width:0.75;stroke-linecap:round;stroke-linejoin:round;stroke-miterlimit:10;}
	.st6{fill:url(#SVGID_7_);stroke:#BBBBBB;stroke-width:0.75;stroke-linecap:round;stroke-linejoin:round;stroke-miterlimit:10;}
	.st7{display:none;}
	.st8{display:inline;fill:url(#SVGID_8_);}
	.st9{display:inline;fill:url(#SVGID_9_);}
	.st10{display:inline;fill:url(#SVGID_10_);}
	.st11{display:inline;fill:url(#SVGID_11_);}
	.st12{display:none;fill:url(#SVGID_12_);}
	.st13{display:inline;}
	.st14{fill:url(#SVGID_13_);}
	.st15{fill:url(#SVGID_14_);}
	.st16{fill:url(#SVGID_15_);}
	.st17{fill:url(#SVGID_16_);}
	.st18{display:inline;fill:url(#SVGID_17_);}
</style>
<g id="Livello_1">
	<g>
		<g>
			<linearGradient id="SVGID_1_" gradientUnits="userSpaceOnUse" x1="453.9818" y1="1.6604" x2="453.9818" y2="77.1249">
				<stop  offset="0" style="stop-color:#FFFFFF"/>
				<stop  offset="0.4135" style="stop-color:#595959"/>
				<stop  offset="0.7738" style="stop-color:#CCCCCC"/>
				<stop  offset="1" style="stop-color:#262626"/>
			</linearGradient>
			<path class="st0" d="M519.9,47.7c-1.3,1.7-2.4,3.4-3.8,5c-1.5,1.7-3.3,2.9-5.7,3.1c-3.1,0.2-4.6-1.1-5-4c0-0.3-0.2-0.6-0.3-1
				c-0.2,0.2-0.5,0.4-0.7,0.6c-0.9,1-1.8,2.1-2.8,3c-1.7,1.5-3.9,1.9-5.5,1.1c-1.6-0.9-2.8-3.3-2.2-5.4c0.5-1.8,1.2-3.6,1.9-5.3
				c0.5-1.1,1.1-2.2,1.8-3.2c2.3-3.6,1.7-5.1-2.2-5.2c-1.2,0-1.5,0.5-1.9,1.4c-1.5,3.4-3,6.9-4.8,10.3c-1.3,2.5-2.8,5-5.5,6.3
				c-1.8,0.9-3.8,1.5-5.8,1.7c-3.3,0.3-5.9-1.9-6.7-5.2c-0.1-0.3-0.1-0.6-0.1-0.9c-0.3,0.2-0.6,0.5-0.8,0.7c-1,1.1-1.8,2.3-2.9,3.2
				c-1,0.8-2.2,1.5-3.4,1.8c-3.6,0.8-5.9-0.9-6.6-4.7c-0.1-0.4-0.1-0.8-0.2-1.1c-0.3,0.3-0.6,0.5-0.8,0.8c-1,1.1-1.8,2.3-2.9,3.2
				c-0.9,0.8-2,1.4-3.2,1.7c-3.5,0.9-6-0.8-6.7-4.2c-0.1-0.5-0.2-1.1-0.2-1.6c-0.4,0.4-0.9,0.9-1.3,1.3c-1,1.1-2,2.3-3.1,3.4
				c-1.4,1.4-3.2,1.7-5,1c-1.8-0.7-2.4-2.3-2.4-4.2c0-0.3,0-0.6,0-1c0-0.2-0.1-0.4-0.1-0.7c-0.3,0.1-0.6,0.2-0.8,0.4
				c-1.3,1.4-2.4,2.9-3.8,4.1c-3.6,3.1-7.3,1.8-8.2-2.7c-0.1-0.3-0.1-0.6-0.2-0.9c-0.3,0.2-0.6,0.3-0.7,0.5
				c-4.7,6.1-11,9.7-18.6,10.9c-6.5,1-12.8,0.5-18.2-3c-5.6-3.5-8.8-9.6-9-16c-0.4-8.8,2.1-16.8,7.4-24c0.8-1.1,0.7-2.2,0.4-3.4
				c-0.9-3.8-1-7.6-0.2-11.4c0.1-0.7,0.3-1.4,0.6-2.1c0.2-0.3,0.7-0.5,1.1-0.8c0.2,0.4,0.6,0.8,0.6,1.2c0,1.1-0.4,2.2-0.3,3.3
				c0.1,2.3,0.3,4.6,0.5,6.9c0,0.5,0.4,1,0.6,1.4c0.4-0.3,0.8-0.5,1.1-0.9c3.1-3.3,6.6-6,10.9-7.8c8-3.4,16.1-3.8,24.3-0.6
				c8.1,3.3,10.5,11.8,6.6,19.1c-3.7,6.9-10,10.1-17.7,10.7c-3.7,0.3-7.5,0-11.1-0.7c-5.6-1.1-10.2-4-13.3-8.8
				c-0.9-1.4-1.3-1.5-1.9-0.1c-3.4,7.5-5.7,15.2-4.1,23.5c0.9,4.7,3.6,8.2,8.4,9.5c10.7,3,20.5,1.4,28.7-6.2c2.2-2.1,3.7-5,5.1-7.8
				c2.2-4.5,4.6-8.7,9.3-11.2c2.8-1.5,5.8-2.5,9-1.4c1.1,0.3,2.1,1,3,1.7c0.8,0.6,1.1,1.5,0.1,2.2c-0.9,0.7-1.2-0.2-1.6-0.8
				c-1-1.3-2.5-1.7-4.2-1.1c-0.5,0.2-1.1,0.5-1.5,0.8c-5.5,3.9-9.2,9.1-11.2,15.4c-0.3,0.9-0.1,2.5,0.5,3c1,0.9,2.5,0.2,3.3-0.7
				c2-2.3,4-4.7,5.8-7.2c1.2-1.7,2.1-3.6,3.2-5.4c1.8-2.9,2.4-3,6.2-2.7c1.1,0.1,0.9,0.5,0.5,1.2c-1.6,2.8-3.3,5.5-4.7,8.4
				c-0.8,1.6-1,3.5-1.2,5.3c-0.2,1.5,0.8,1.9,2,1c0.7-0.5,1.2-1.1,1.7-1.7c2.6-3.2,4.8-6.7,5.9-10.7c0.7-2.5,1.7-4.8,2.7-7.2
				c0.5-1.2,0.8-2-1.1-1.7c-0.2,0-0.3,0-0.5,0c-0.7,0-1.7,0.1-1.5-0.9c0.1-0.4,1.1-1,1.6-0.9c2.6,0.4,3.6-0.9,4.5-2.9
				c1.3-2.8,2.9-5.6,4.7-8.1c0.9-1.3,2.3-2.5,3.8-3.4c2.1-1.3,4.1-0.3,4.3,2c0.1,1.4-0.2,3-0.7,4.4c-0.9,2.3-2,4.5-3.1,6.8
				c-0.4,0.8-0.4,1.1,0.6,1.2c2.5,0.2,2.7,0.1,3.8-2c1.7-3,3.3-6.1,5.2-9c0.9-1.3,2.3-2.5,3.7-3.4c2-1.3,4.1-0.4,4.4,1.9
				c0.2,1.4-0.1,2.9-0.6,4.2c-0.8,2.2-2,4.4-3,6.5c-0.5,1-0.9,1.8,0.9,1.7c0.3,0,0.7-0.1,1,0c0.3,0.2,0.9,0.5,0.8,0.7
				c-0.1,0.4-0.4,0.8-0.8,1.1c-0.1,0.1-0.5,0.1-0.7,0.1c-2.6-0.6-3.7,1-5,2.8c-1.7,2.4-3.8,4.7-5.8,6.8c-1,1.1-1.8,2.2-2,3.7
				c-0.3,1.9-0.9,3.8-1.1,5.8c-0.2,2.3,1.5,3.3,3.5,2.1c1.4-0.8,2.6-2.1,3.6-3.4c1.5-2.1,2.8-4.3,4-6.6c2.1-4.1,4.4-7.9,8.7-10.1
				c1.8-1,3.7-1.8,5.9-1.1c2.3,0.7,3.3,2.1,2.7,4.3c-0.9,3.2-3.1,5.5-6,7.1c-1.8,1-3.8,1.6-5.8,2c-1.4,0.3-2.1,0.8-2.2,2.1
				c-0.1,1.3-0.4,2.7-0.3,4c0.2,2.2,2,3.3,4.2,2.8c2.6-0.6,4.5-2.3,6-4.4c4.2-6.1,7-12.8,8.7-19.9c0.2-0.9,0.2-2,0.7-2.8
				c0.4-0.7,1.3-1.7,2-1.7c0.7,0,1.7,0.8,2.2,1.5c0.4,0.7,0.6,1.7,0.4,2.5c-0.3,1.2-1.1,2.3-1.7,3.4c-0.2,0.5-0.6,0.9-0.9,1.3
				c0.6,0,1.1,0.1,1.7,0.1c1.7,0,3.5,0,5.2-0.2c1.3-0.2,1.8,0.4,1.5,1.4c-0.5,1.6-1.2,3.1-1.8,4.7c-1.5,3.3-3.1,6.5-4.4,9.9
				c-0.4,1-0.5,2.9,0.1,3.3c1.5,0.9,2.5-0.7,3.2-1.7c1.3-1.6,2.4-3.3,3.5-5.1c2-3.6,4-7.1,5.8-10.8c1.2-2.4,2.8-3.7,5.6-3.3
				c0.6,0.1,1.2,0,1.7,0c0.3,0,0.5,0.2,0.8,0.3c-0.1,0.2-0.2,0.4-0.4,0.6c-4.5,5-6.8,11.1-9.4,17c-0.2,0.4-0.4,1-0.3,1.4
				c0.2,0.7,0.5,1.7,1,2c0.5,0.3,1.7,0,2.2-0.4c1.4-1.3,2.8-2.6,3.8-4.1c2.9-4.5,5.7-9.2,8.4-13.8c1.5-2.6,3.9-3.7,6.8-2.9
				c0.2,0.1,0.4,0.7,0.3,0.8c-3.8,3.4-4.6,8.2-6.4,12.5c-1.3,3.3-2.3,6.6-3.4,10c0,0.2-0.1,0.3-0.1,0.5c0.2,0,0.3-0.1,0.5-0.1
				c4-1.1,6.9-3.6,9.1-6.9c1.3-2,2.4-4.2,3.7-6.2c0.2-0.4,0.8-0.6,1.3-0.9c0.1,0.5,0.4,1.2,0.2,1.6c-3,6.8-7,12.7-14.9,15
				c-1.6,0.5-2.3,1.7-3,2.9c-2.4,3.9-5,7.7-8.6,10.8c-3.9,3.4-8.4,5.2-13.8,4.6c-3.8-0.4-5.3-2.6-4.5-6.1c0.9-4.1,3.8-6.5,7.6-7.9
				c4-1.5,8.1-2.9,12.3-3.6c3.5-0.6,5.5-2.2,6.5-5.5c0.6-2.1,1.6-4.2,2.4-6.3c0-0.3-0.1-0.5-0.1-0.8
				C520.4,47.2,520.1,47.5,519.9,47.7z M450.7,38.1c1.4-1.7,2.8-3.5,4.2-5.2c0.5-0.7,0.2-1.1-0.6-1c-0.6,0.1-1.4,0.3-1.6,0.7
				C452,34.4,451.4,36.3,450.7,38.1c-0.1,0.1-0.1,0.3-0.2,0.4C450.6,38.3,450.7,38.2,450.7,38.1z M464.7,38.1
				c1.4-1.7,2.8-3.5,4.2-5.2c0.5-0.7,0.2-1.1-0.6-1c-0.6,0.1-1.4,0.3-1.6,0.7C465.9,34.4,465.3,36.3,464.7,38.1
				c-0.1,0.1-0.1,0.3-0.2,0.4C464.5,38.3,464.6,38.2,464.7,38.1z M422.9,17.8c-0.2-3.1-1.3-6-4.1-8.2c-4.6-3.6-9.9-4-15.3-3
				c-8.5,1.7-14.5,7-19.4,13.6c-0.4,0.5-0.5,1.7-0.2,2.1c1.5,2.2,2.8,4.7,4.9,6.2c7.8,5.7,16.6,6.1,25.2,2.1
				C419.4,28.3,422.5,23.9,422.9,17.8z M446.8,50.8c0,2.2,1.5,3.3,3.3,2.4c1.2-0.6,2.3-1.6,3.2-2.6c4.9-5.1,5.7-12,8.5-18.1
				c0.1-0.3,0-0.6-0.2-0.7c-1.3-0.6-3.8,0.2-4.7,1.5c-1.8,2.3-3.3,4.9-5.5,6.7C447.7,43.1,448,47.3,446.8,50.8z M496,75.3
				c0.7,0.2,1.5,0.1,2.2,0c0.9-0.2,1.9-0.4,2.7-0.9c5.5-2.9,9.3-7.5,13-12.3c0.2-0.2,0.1-0.6,0.2-0.8c-0.2,0-0.5-0.1-0.7-0.1
				c-4.7,1.5-9.4,2.8-14,4.5c-2.5,0.9-4.2,3-5.2,5.5C493.4,73.2,494.1,74.8,496,75.3z M487.1,35.7c0-2-0.6-2.3-1.9-1.8
				c-0.4,0.1-0.7,0.4-1.1,0.6c-2.8,2.3-5,5.1-6.7,8.2c-0.1,0.3-0.2,0.6-0.2,0.9c0.4,0,0.8,0.1,1.1,0c3.1-0.8,5.7-2.6,7.5-5.1
				C486.5,37.5,486.8,36.3,487.1,35.7z M455.1,30.4c1-0.5,1.8-0.6,2-1c1.4-3,2.7-6.1,4-9.2c0.2-0.4-0.1-1.1-0.1-1.6
				c-0.5,0.3-1.3,0.5-1.5,1c-1.7,3.1-3.4,6.2-5,9.3C454.3,29.1,454.8,29.7,455.1,30.4z M475.2,19.9c-0.1-0.4-0.2-0.9-0.3-1.4
				c-0.5,0.3-1.1,0.4-1.4,0.8c-1.7,2.9-3.3,5.9-4.9,8.8c-0.3,0.5-0.2,1.1-0.3,1.7c0.9-0.1,2.2,0.1,2.5-0.3
				C472.8,26.5,474.5,23.4,475.2,19.9z"/>
			<linearGradient id="SVGID_2_" gradientUnits="userSpaceOnUse" x1="292.4098" y1="13.3082" x2="292.4098" y2="56.4422">
				<stop  offset="0" style="stop-color:#FFFFFF"/>
				<stop  offset="0.4135" style="stop-color:#595959"/>
				<stop  offset="0.7738" style="stop-color:#CCCCCC"/>
				<stop  offset="1" style="stop-color:#262626"/>
			</linearGradient>
			<path class="st1" d="M277.5,41.3c3.1-2.6,6.4-5.1,10.2-6.8c1.1-0.5,2.3-0.9,3.5-1.1c1.1-0.2,1.6,0.2,0.9,1.3
				c-1.5,2.6-3,5.2-4.3,7.8c-1.3,2.6-2.3,5.3-3.3,8c-0.2,0.6-0.3,1.2-0.3,1.9c0,1.6,0.8,2.1,2.2,1.3c1.1-0.7,2.2-1.6,2.8-2.6
				c2.2-3.4,4.3-7,6.4-10.5c2-3.5,4.3-6.7,8.4-8.1c1.3-0.4,2.8-0.6,4.1-0.5c2.3,0.1,4,1.6,4.3,3.7c0.3,1.8-1.5,4.7-3.2,5.2
				c-0.4,0.1-1.2,0.1-1.3-0.1c-0.2-0.4-0.1-1,0.1-1.4c0.5-1.2,1.3-2.3,1.6-3.5c0.3-1.6-0.7-2.4-2.2-1.7c-1.5,0.7-3,1.7-4.2,2.9
				c-3,3.1-5,6.7-5.8,11c-0.1,0.4-0.2,0.8-0.2,1.2c0.1,1.9,0.2,3.8,2,4.9c1.7,1,3.6,0.6,5.2-0.2c2.5-1.2,4.1-3.4,5.4-5.8
				c3.9-7.6,7.8-15.2,11.7-22.7c1.4-2.7,2.9-5.4,4.5-8c1.6-2.5,3.2-2.9,5.9-2.3c1.2,0.3,0.9,0.6,0.5,1.4
				c-4.6,7.8-9.1,15.6-13.6,23.4c-0.2,0.3-0.3,0.7-0.5,1.1c-0.1,0.3-0.1,0.7-0.2,1c0.2-0.2,0.4-0.4,0.7-0.6c3.3-2.2,6.6-4.5,10-6.6
				c0.9-0.6,2.1-0.9,3.2-1.2c0.5-0.1,1.1,0.1,1.7,0.1c-0.1,0.5-0.2,1.1-0.4,1.5c-1.9,3.6-3.8,7.1-5.6,10.7c-0.8,1.7-1.5,3.6-2,5.4
				c-0.2,1,0.3,2.1,0.5,3.1c0.9-0.4,2.2-0.6,2.7-1.3c2.2-3.1,4.4-6.3,6.3-9.7c2.1-3.7,4-7.4,7.9-9.7c1.5-0.9,3.3-1.6,5-1.9
				c3.4-0.6,5.5,1.9,4.4,5c-1.1,3.4-3.7,5.7-6.9,7.2c-1.5,0.7-3.1,1.2-4.7,1.5c-1.4,0.2-2.1,0.9-2.2,2.1c-0.1,1.4-0.4,2.9-0.2,4.3
				c0.2,1.9,1.9,2.9,3.9,2.5c2.6-0.5,4.5-2,5.9-4c1.3-1.8,2.4-3.8,3.5-5.8c0.3-0.6,0.5-1.2,0.9-1.7c0.3-0.3,0.8-0.4,1.2-0.7
				c0.1,0.4,0.4,0.9,0.2,1.3c-1.9,4.2-3.7,8.4-7.7,11.2c-1.8,1.2-3.9,1.7-6.1,1.7c-3.3,0-5.7-2.1-6.4-5.3c-0.1-0.3-0.1-0.6-0.2-0.9
				c-0.3,0.3-0.6,0.5-0.8,0.8c-0.9,1.1-1.5,2.4-2.6,3.2c-1.4,1-3.1,1.9-4.8,2.3c-2.3,0.4-4.5-1.6-4.6-3.9c-0.2-3.1,1.1-5.8,2.6-8.4
				c0.6-1.1,1.4-2.2,2-3.3c0.2-0.4,0.1-1,0.1-1.5c-0.5,0.1-1.3-0.1-1.6,0.2c-2.1,1.8-4.4,3.5-6.1,5.6c-2.3,2.8-4.2,5.9-6.1,9
				c-1,1.6-3.9,3.3-5,2.3c-2-1.7-3.4-0.1-5,0.1c-4.3,0.3-8.2-1-9-5.5c0-0.3-0.2-0.5-0.3-0.8c-0.2,0.2-0.4,0.5-0.6,0.7
				c-1.5,1.6-2.8,3.4-4.5,4.7c-2.4,1.7-5.8,1.2-6.9-1.2c-0.7-1.5-0.7-3.5-0.3-5.1c0.6-2.2,1.9-4.2,2.9-6.3c0.3-0.6,0.8-1.1,1-1.6
				c0.2-0.7,0.3-1.4,0.4-2.1c-0.7,0.2-1.6,0.3-2.2,0.7c-4.2,3-7.3,7-9.9,11.3c-0.5,0.8-1,1.5-1.3,2.3c-0.8,2.1-2.4,2.9-4.6,2.9
				c-0.6,0-1.6,0.6-1.6-0.8c0,0-0.6-0.1-0.9,0c-4.1,1.3-6.2-0.1-6.4-4.2c0-0.5-0.1-0.9-0.2-1.4c-0.3,0.3-0.7,0.6-1,0.9
				c-1.3,1.3-2.5,2.8-4,4c-3.2,2.5-6.3,1.5-7.5-2.2c-0.5-1.6-0.9-1.4-1.8-0.3c-2.1,2.6-4.8,4-8.4,3.7c-2.5-0.3-4-1.6-4-4
				c0-2,0-4,0.5-5.9c2.6-9.4,6.2-18.4,11.3-26.7c0.8-1.4,1.9-2.6,3-3.8c0.4-0.4,0.8-0.8,1.3-1.1c1.3-0.7,2.7-1.5,4.2-0.6
				c1.5,0.9,1.6,2.5,1.3,4.1c-0.8,4.3-3.1,7.9-5.2,11.6c-2.6,4.6-5.9,8.6-9.6,12.5c-2.6,2.7-3.3,6.2-2.8,9.8
				c0.3,2.3,2.5,3.1,4.5,1.8c1.1-0.7,2.1-1.7,2.8-2.7c1.4-2.2,2.8-4.5,4-6.9c2.6-5,5.6-9.7,11.5-11.6c2.9-1,5.8-1.3,8.5,0.6
				c0.6,0.4,1.1,1.1,1.4,1.8c0.1,0.3-0.2,1-0.5,1.2c-0.2,0.1-0.9-0.1-1.2-0.3c-2.2-2.1-3.4-2.4-6-0.7c-5.4,3.6-8.9,8.7-11.1,14.7
				c-0.4,1.1-0.3,3.1,0.5,3.7c1.3,1.1,2.9-0.1,3.8-1.2c2.3-2.8,4.4-5.8,6.5-8.7c0.7-1,1.2-2.1,1.8-3.1c1.7-2.8,2.6-3.2,5.8-2.9
				c1.1,0.1,1.4,0.3,0.7,1.4c-1.6,2.6-3.2,5.2-4.4,8c-0.8,1.8-1.1,3.8-1.4,5.8c-0.2,1.3,0.9,1.8,1.9,0.9c1.3-1.2,2.6-2.5,3.5-4
				c1.9-3.1,3.6-6.3,5.4-9.4c0.9-1.6,1.8-3.2,2.8-4.8c1.4-2.2,3.6-2.8,6-1.8c0.1,0.1,0.1,0.7,0,0.9c-1.5,2.2-3,4.4-4.5,6.6
				c-0.2,0.3-0.3,0.6-0.5,1c-0.2,0.2-0.3,0.4-0.5,0.7c-0.1,0.1-0.2,0.2-0.3,0.3c0,0,0.1,0.1,0.1,0.2c0.1-0.1,0.2-0.2,0.3-0.3
				c0.2-0.2,0.4-0.4,0.6-0.6C277.1,41.8,277.3,41.5,277.5,41.3z M250.1,18.5c0.1-0.3,0.1-0.6,0-0.8c-0.1-0.2-0.2-0.4-0.2-0.7
				c-0.4,0.2-0.9,0.2-1.2,0.5c-0.5,0.4-0.9,1-1.2,1.5c-3.2,6.1-6.3,12.3-9.4,18.5c-0.1,0.2,0,0.5,0,0.7c0.3-0.2,0.7-0.3,0.9-0.5
				c3.7-4.6,7-9.5,9.5-14.9C249.1,21.5,249.6,20,250.1,18.5z M350.3,35.6c0-2-0.8-2.4-2.3-1.4c-3.3,2.2-5.6,5.4-7.5,8.8
				c-0.1,0.2-0.1,0.4-0.1,0.7c0.3,0,0.6,0.1,0.9,0c3.5-1,6.3-2.8,8.1-5.9C349.9,37,350.2,36,350.3,35.6z M316.5,42.9
				c0,0.1,0.6,0,0.6,0.1c0.1,0,0.2,0,0.3,0c0,0-0.7,0.6-0.8,0.5C316.6,43.5,316.6,43,316.5,42.9z M275.5,43.7l-0.8,0.7l0.7-0.8
				L275.5,43.7z"/>
			<linearGradient id="SVGID_3_" gradientUnits="userSpaceOnUse" x1="100.8055" y1="13.2756" x2="100.8055" y2="56.1905">
				<stop  offset="0" style="stop-color:#FFFFFF"/>
				<stop  offset="0.4135" style="stop-color:#595959"/>
				<stop  offset="0.7738" style="stop-color:#CCCCCC"/>
				<stop  offset="1" style="stop-color:#262626"/>
			</linearGradient>
			<path class="st2" d="M92.5,36c-0.4,7.4-2.8,11.4-6,15.1c-0.4,0.5-0.7,1.2-1,1.7c0.7,0.3,1.5,0.9,2.2,0.8c1.1-0.2,2.4-0.6,3.3-1.3
				c2.5-2.1,4.1-4.8,5.4-7.7c1.2-2.6,2.3-5.1,3.4-7.7c0.3-0.8,0.6-1.8,0.3-2.5c-0.7-1.7,0.3-1.5,1.4-1.5c4.7-0.2,5,0.3,3.1,4.4
				c-1.8,4-3.5,7.9-5.2,11.9c-0.3,0.7-0.6,1.4-0.6,2.1c0,0.8,0.2,2.2,0.6,2.3c0.9,0.2,2.1,0,2.9-0.4c0.9-0.5,1.7-1.3,2.2-2.2
				c2.5-3.6,4.8-7.4,6.2-11.7c2.5-7.6,5.7-15,10.4-21.7c0.9-1.4,2.3-2.5,3.6-3.5c1-0.8,2.4-1.3,3.7-0.4c1.3,0.8,1.5,2.3,1.3,3.6
				c-0.3,1.6-0.6,3.2-1.3,4.6c-3.5,7.4-7.7,14.3-13.6,20.2c-2.6,2.6-3.1,6.3-2.6,9.9c0.3,1.9,2.2,2.7,4,1.7c1.2-0.7,2.3-1.7,3-2.8
				c1.7-2.5,3.3-5.2,4.7-7.8c1.9-3.7,3.9-7.3,7.7-9.5c1.4-0.9,3.1-1.6,4.8-1.9c3.6-0.8,5.9,1.8,4.6,5.1c-1.9,4.9-6,7.4-11,8.4
				c-2.1,0.4-2.8,1.4-3,3.1c-0.1,1.1-0.2,2.3,0,3.4c0.2,2,1.9,3,3.9,2.6c2.6-0.5,4.5-2,6-4c1.3-1.8,2.4-3.8,3.5-5.8
				c0.3-0.6,0.5-1.2,0.9-1.7c0.3-0.3,0.8-0.5,1.1-0.7c0.1,0.4,0.4,0.9,0.3,1.2c-1.9,4.2-3.6,8.6-7.8,11.1c-1.7,1-3.8,1.6-5.8,1.8
				c-3.1,0.3-5.6-1.7-6.6-4.7c-0.1-0.4-0.2-0.8-0.3-1.1c-0.3,0.3-0.7,0.6-1,1c-0.8,0.8-1.5,1.7-2.3,2.5c-2.1,2-4.7,2.5-7.6,2.1
				c-2-0.3-2.9-1.5-3.4-4.1c-0.1-0.5-0.4-1-0.5-1.5c-0.3,0.4-0.6,0.7-1,1.1c-1.2,1.2-2.3,2.6-3.7,3.5c-3,2.1-6.3,1.2-7.6-2.1
				c-0.5-1.3-0.9-1.2-1.7-0.3c-2.8,2.9-5.9,4-9.7,1.8c-0.3-0.2-1,0.1-1.5,0.3c-1.6,0.4-3.3,1.2-4.9,1.3c-2.8,0.2-4.5-1.4-5-4
				c-0.1-0.5-0.3-1-0.4-1.5c-0.4,0.4-0.8,0.8-1.2,1.2c-1.2,1.2-2.3,2.6-3.7,3.4c-4.4,2.6-8.6,0.3-8.5-4.6c0.1-2.8,0.8-5.7,1.6-8.4
				c0.8-2.9,2-5.7,3.2-8.6c0.4-1,0.6-1.6-0.9-1.5c-0.8,0-2.4,0.6-2.3-0.9c0.1-1.4,1.5-1,2.4-0.9c1.8,0.2,2.6-0.6,3.3-2.1
				c1.6-3.1,3.3-6.1,5.2-9c0.8-1.2,2.1-2.2,3.3-3.1c1-0.8,2.4-1.2,3.4-0.3c0.8,0.7,1.5,2.1,1.4,3.1c-0.1,1.8-0.8,3.6-1.4,5.3
				c-0.6,1.6-1.5,3.2-2.4,4.7c-0.5,0.9-0.6,1.5,0.8,1.4c0.4,0,0.9-0.1,1.2,0.1c0.3,0.1,0.8,0.6,0.8,0.8c-0.1,0.4-0.5,0.7-0.8,1
				c-0.1,0.1-0.5,0.1-0.7,0.1c-2.4-0.5-3.6,0.8-4.9,2.6c-1.7,2.5-4,4.7-5.9,7.1c-0.8,1-1.5,2.2-1.9,3.5c-0.5,1.6-0.8,3.3-1.1,4.9
				c-0.2,1.3-0.5,2.8,1,3.4c1.4,0.6,2.9,0,3.8-1.2c2-2.6,3.9-5.3,5.8-8c1.4-2.1,2.3-4.5,4-6.3c1.7-1.9,3.8-3.7,6-4.9
				C88.4,30.4,92.7,32.7,92.5,36z M115.6,38.1c-0.1,0.2-0.2,0.5-0.3,0.7c0.3-0.2,0.5-0.5,0.8-0.8c0.1-0.1,0.1-0.2,0.2-0.3
				c4.9-5.4,8.6-11.5,11-18.3c0.3-0.7,0-1.6,0-2.4c-0.6,0.5-1.3,0.9-1.7,1.5c-4.1,5.9-7,12.3-9.6,18.9
				C115.9,37.7,115.8,37.9,115.6,38.1z M66.5,38.1c1.4-1.7,2.8-3.5,4.2-5.2c0.5-0.7,0.2-1.1-0.6-1c-0.6,0.1-1.4,0.3-1.6,0.7
				C67.7,34.4,67.1,36.3,66.5,38.1c-0.1,0.1-0.1,0.3-0.2,0.4C66.3,38.3,66.4,38.2,66.5,38.1z M81.3,49.1c0.3-0.7,0.5-2,1.3-2.5
				c0.7-0.4,2.1,0.1,3.2,0.2c0.4,0,1.2,0.1,1.3-0.1c1.7-2.8,3.1-5.7,3.2-8.9c0-1-0.5-2.4-1.3-2.8c-0.8-0.4-2.1,0.1-3.2,0.3
				c-0.4,0.1-0.7,0.4-1,0.7c-4.3,3.6-6.5,8.3-7.8,13.5c-0.2,0.8-0.2,1.7-0.1,2.6c0.3,1.7,1.3,2.2,3,1.8c1.8-0.4,2.4-1.3,1.9-2.9
				C81.5,50.5,81.5,50.1,81.3,49.1z M139,36c0.2-0.4,0.2-0.9,0-1.4c-0.2-0.4-0.3-0.7-0.5-0.7c-0.7,0-1.5,0.1-2,0.5
				c-3.1,2.3-5.3,5.2-7.1,8.5c-0.1,0.2-0.1,0.6-0.1,0.8c0.3,0,0.6,0,0.9,0c3.2-0.9,5.8-2.6,7.7-5.3C138.4,37.6,138.7,36.8,139,36z
				 M71,30.3c0.9-0.4,1.7-0.5,1.9-0.9c1.4-3.1,2.8-6.2,4.1-9.4c0.2-0.4-0.2-1-0.2-1.5c-0.5,0.3-1.1,0.5-1.3,0.9
				c-1.8,3.1-3.5,6.3-5.1,9.5C70.1,29.1,70.7,29.7,71,30.3z"/>
			<linearGradient id="SVGID_4_" gradientUnits="userSpaceOnUse" x1="194.018" y1="2.8287" x2="194.018" y2="58.5891">
				<stop  offset="0" style="stop-color:#FFFFFF"/>
				<stop  offset="0.4135" style="stop-color:#595959"/>
				<stop  offset="0.7738" style="stop-color:#CCCCCC"/>
				<stop  offset="1" style="stop-color:#262626"/>
			</linearGradient>
			<path class="st3" d="M207.6,4.6c1.3,0.1,2.5,0.3,3.8,0.4c1.2,0.2,2.3-0.2,3.3-0.8c0.9-0.6,2-1,3.1-1.4c0.3-0.1,0.7,0.1,1.1,0.1
				c-0.1,0.4-0.1,0.8-0.3,1c-0.6,0.7-1.3,1.3-1.9,2c0.9,0.3,1.8,0.6,2.7,1c3.2,1.2,6.3,2.4,8.9,4.7c4.7,4.2,4.4,10.6-0.8,14.4
				c-3,2.2-6.5,3-10.1,3.8c-0.4,0.1-0.7,0.2-1.1,0.3c0.3,0.2,0.6,0.5,1,0.6c2.2,1.2,4.6,2.3,6.6,3.7c5,3.4,5.6,10.5,1.9,15.1
				c-3.7,4.6-8.7,6.9-14.4,8.2c-5,1.1-10,0.8-15-0.2c-3.9-0.8-7.8-2-11.6-3.2c-1.5-0.5-2.6-0.3-3.9,0.5c-5.9,3.6-12.2,4.6-19,2.9
				c-3-0.8-5.2-3.1-5.4-5.6c-0.4-3.5,2.4-6.8,6.3-7.3c3.3-0.4,6.4-0.1,9.4,1.2c2.3,1.1,4.6,2.2,6.9,3.3c2.3,1.2,2.5,1.3,4-0.8
				c2.9-4,5.6-8.1,8.1-12.3c4-6.5,7.6-13.1,11.7-19.5c1.9-2.9,4.4-5.4,6.7-8c1.2-1.4,1.2-1.7-0.6-1.8c-4.4-0.3-8.8-0.8-13.1-0.5
				c-5.1,0.4-10.1,1.5-15,2.7c-5.8,1.5-10.4,4.8-13.8,9.6c-0.9,1.4-1.7,3-2,4.6c-0.9,4.8,3.6,8.7,8.7,7.8c4-0.7,6.6-3,8.1-6.6
				c0.3-0.7,0.3-1.7,1.3-1.3c0.4,0.2,0.8,1.2,0.6,1.8c-1,4.1-3.8,6.7-7.9,7.8c-5.3,1.5-12.6-0.8-14.1-6.6c-1-4,0-7.7,2.7-11
				c5.1-6.1,12-9.1,19.8-10.3c1.8-0.3,3.7-0.5,5.5-0.6C195.7,3.9,201.7,4,207.6,4.6z M210.2,27.5c0,0,0,0.1,0,0.1c0.9,0,1.8,0,2.7,0
				c5.9,0.1,10-2.9,12.9-7.5c1.7-2.7,1.2-5.8-1.4-7.8c-1.9-1.4-4.2-2.5-6.5-3.4c-3-1.2-3.1-1.1-4.7,1.5c-4,6.3-8,12.7-12,19.1
				c-4.7,7.5-9,15.3-15.5,21.6c-0.8,0.8-0.6,1.1,0.4,1.4c6.3,2.3,12.8,3.7,19.6,3.3c6.5-0.4,11.5-3.4,15.1-8.5
				c3.2-4.5,1.9-9.9-3-12.6c-1.9-1.1-4-1.8-6.1-2.6c-2.3-0.9-4.7-1.5-7-2.4c-0.5-0.2-0.7-0.9-1.1-1.4c0.5-0.3,1-0.9,1.5-1
				C206.9,27.4,208.6,27.5,210.2,27.5z M167.7,55.9c4.1,0.1,7.5-1.1,10.7-3.1c0.7-0.5,0.7-0.7,0-1c-3.5-1.4-6.9-2.9-10.5-4.2
				c-0.9-0.3-2-0.3-2.9-0.3c-1.9,0.1-3,1.2-3.7,2.7c-0.7,1.5-0.1,2.8,0.9,4C163.6,55.7,165.7,56,167.7,55.9z"/>
			<linearGradient id="SVGID_5_" gradientUnits="userSpaceOnUse" x1="30.9013" y1="1.5653" x2="30.9013" y2="59.725">
				<stop  offset="0" style="stop-color:#FFFFFF"/>
				<stop  offset="0.4135" style="stop-color:#595959"/>
				<stop  offset="0.7738" style="stop-color:#CCCCCC"/>
				<stop  offset="1" style="stop-color:#262626"/>
			</linearGradient>
			<path class="st4" d="M28.6,30.8c-4.3-0.1-8.6,0.1-12.6,2C11.5,35,5.8,40.6,6.7,47.6c0.4,3.5,2,6,5.2,7.7c4,2.1,8.3,2.7,12.7,2.4
				c9.8-0.7,18.6-4.1,26.2-10.2c1.4-1.1,2.7-2.6,3.7-4.2c1.2-1.9,0.8-2.9-1.3-3.9c-0.5-0.2-0.8-0.7-1.1-1.1c0.5-0.2,1.1-0.6,1.6-0.6
				c3.5,0.4,5.5,3.7,4.3,6.9c-1,2.7-3.2,4.6-5.5,6.3c-5.7,4.1-12.2,6.3-19.1,7.6c-6.5,1.3-13.1,1.5-19.7,0c-3.9-0.8-7.4-2.5-9.9-5.6
				C0.5,49,0.4,44.5,2.7,39.9c3.1-6.2,8.8-9.3,15.3-11.4c1.9-0.6,3.9-0.9,5.8-1.3c-1.5-1-3.2-1.9-4.6-3.1c-1.9-1.7-2.7-3.8-2.1-6.5
				c0.9-3.8,3.3-6.4,6.3-8.6c7.9-5.8,17-8.1,26.8-7.3c2.5,0.2,5,1.1,7.2,2.3c3.9,2.2,4.3,5.9,1.4,9.1c-3,3.3-6.9,4.8-11.2,5.7
				c-0.7,0.1-1.5-0.2-2.3-0.3c0.7-0.4,1.3-1,2.1-1.3c1-0.5,2.2-0.6,3.2-1.1c3-1.5,4.6-4,5.3-7.1c0.4-1.6-0.9-3.5-2.8-4.4
				c-1.2-0.5-2.5-1-3.8-1C40.5,3.5,32.4,5.4,26,11.7c-1.7,1.7-3,3.6-3.3,6c-0.3,3.5,1.3,5.9,4.7,6.9c1.7,0.5,3.5,1,5.2,1.5
				c0.6,0.2,1.3,0.3,1.9,0.5c1.2,0.5,3,0.9,2.6,2.7c-0.4,1.6-2,1.4-3.3,1.4C32.1,30.8,30.3,30.8,28.6,30.8z"/>
			<linearGradient id="SVGID_6_" gradientUnits="userSpaceOnUse" x1="105.5751" y1="24.6641" x2="105.5751" y2="30.468">
				<stop  offset="0" style="stop-color:#FFFFFF"/>
				<stop  offset="0.4135" style="stop-color:#595959"/>
				<stop  offset="0.7738" style="stop-color:#CCCCCC"/>
				<stop  offset="1" style="stop-color:#262626"/>
			</linearGradient>
			<path class="st5" d="M108.7,27.2c0,1.8-1.5,3.2-3.5,3.2c-1.6,0-2.7-0.9-2.8-2.4c-0.1-1.7,1.8-3.5,3.7-3.4
				C107.7,24.7,108.7,25.8,108.7,27.2z"/>
			<linearGradient id="SVGID_7_" gradientUnits="userSpaceOnUse" x1="66.3664" y1="38.0886" x2="66.3664" y2="38.4525">
				<stop  offset="0" style="stop-color:#FFFFFF"/>
				<stop  offset="0.4135" style="stop-color:#595959"/>
				<stop  offset="0.7738" style="stop-color:#CCCCCC"/>
				<stop  offset="1" style="stop-color:#262626"/>
			</linearGradient>
			<path class="st6" d="M66.5,38.1c-0.1,0.1-0.2,0.2-0.2,0.4C66.3,38.3,66.4,38.2,66.5,38.1L66.5,38.1z"/>
		</g>
	</g>
</g>
<g id="Livello_2" class="st7">
	<g class="st13">
		<radialGradient id="SVGID_8_" cx="49.9096" cy="2.8394" r="25.1618" gradientUnits="userSpaceOnUse">
			<stop  offset="0" style="stop-color:#E6E7E8"/>
			<stop  offset="3.993058e-02" style="stop-color:#EBEBEC;stop-opacity:0.9601"/>
			<stop  offset="0.192" style="stop-color:#F6F7F7;stop-opacity:0.808"/>
			<stop  offset="0.4058" style="stop-color:#FDFDFD;stop-opacity:0.5942"/>
			<stop  offset="1" style="stop-color:#FFFFFF;stop-opacity:0"/>
		</radialGradient>
		<path style="fill:url(#SVGID_8_);" d="M14.3,2.8c5.9-0.1,11.9-0.2,17.8-0.2l17.8-0.1l17.8,0.1c5.9,0,11.9,0.1,17.8,0.2
			C79.6,2.9,73.6,3,67.7,3L49.9,3.1L32.1,3C26.2,3,20.3,2.9,14.3,2.8z"/>
	</g>
	<g class="st13">
		
			<radialGradient id="SVGID_9_" cx="41.2016" cy="3.5538" r="25.1612" gradientTransform="matrix(0.93 -0.3676 0.3676 0.93 12.7782 14.681)" gradientUnits="userSpaceOnUse">
			<stop  offset="0" style="stop-color:#E6E7E8"/>
			<stop  offset="0.2229" style="stop-color:#F1F1F2;stop-opacity:0.7771"/>
			<stop  offset="0.5882" style="stop-color:#FBFCFC;stop-opacity:0.4118"/>
			<stop  offset="1" style="stop-color:#FFFFFF;stop-opacity:0"/>
		</radialGradient>
		<line style="fill:url(#SVGID_9_);" x1="19.3" y1="15.9" x2="85.5" y2="-10.2"/>
		<radialGradient id="SVGID_10_" cx="52.4012" cy="2.8394" r="25.2824" gradientUnits="userSpaceOnUse">
			<stop  offset="0" style="stop-color:#E6E7E8"/>
			<stop  offset="3.993058e-02" style="stop-color:#EBEBEC;stop-opacity:0.9601"/>
			<stop  offset="0.192" style="stop-color:#F6F7F7;stop-opacity:0.808"/>
			<stop  offset="0.4058" style="stop-color:#FDFDFD;stop-opacity:0.5942"/>
			<stop  offset="1" style="stop-color:#FFFFFF;stop-opacity:0"/>
		</radialGradient>
		<path style="fill:url(#SVGID_10_);" d="M19.3,15.9c5.5-2.3,11-4.5,16.5-6.7l16.5-6.6l16.6-6.5c5.5-2.1,11.1-4.3,16.6-6.4
			C80-8,74.5-5.7,69-3.5L52.5,3.1L35.9,9.6C30.4,11.7,24.9,13.8,19.3,15.9z"/>
	</g>
	<radialGradient id="SVGID_11_" cx="52.1387" cy="2.8394" r="4.8021" gradientUnits="userSpaceOnUse">
		<stop  offset="0.1881" style="stop-color:#E6E7E8"/>
		<stop  offset="0.2885" style="stop-color:#EBECED;stop-opacity:0.8764"/>
		<stop  offset="0.6784" style="stop-color:#FAFAFA;stop-opacity:0.3961"/>
		<stop  offset="1" style="stop-color:#FFFFFF;stop-opacity:0"/>
	</radialGradient>
	<circle class="st11" cx="52.1" cy="2.8" r="4.8"/>
</g>
</svg>
