<?xml version="1.0" encoding="utf-8"?>
<!-- Generator: Adobe Illustrator 22.0.0, SVG Export Plug-In . SVG Version: 6.00 Build 0)  -->
<svg version="1.1" id="Capa_1" xmlns="http://www.w3.org/2000/svg" xmlns:xlink="http://www.w3.org/1999/xlink" x="0px" y="0px"
	 viewBox="0 0 45.9 45.9" style="enable-background:new 0 0 45.9 45.9;" xml:space="preserve">
<style type="text/css">
	.st0{fill:#FFFFFF;}
</style>
<g>
	<g>
		<path class="st0" d="M33.5,28.3c-0.7,1.2-1.5,2.4-2.3,3.6c7.1,1.1,10.8,3.3,10.8,4.5c0,1.5-6.5,5-19,5c-12.5,0-19-3.5-19-5
			c0-1.1,3.6-3.4,10.8-4.5c-0.8-1.2-1.6-2.5-2.3-3.6c-7,1.3-12.4,4-12.4,8.1c0,5.9,11.5,9,22.9,9c11.4,0,22.9-3.1,22.9-9
			C45.9,32.4,40.5,29.6,33.5,28.3z"/>
		<g>
			<path class="st0" d="M23,0.5c-7.4,0-13.5,6-13.5,13.5c0,5.3,6.9,15.5,10.8,20.9c0.6,0.8,1.6,1.3,2.6,1.3c1,0,2-0.5,2.6-1.3
				c3.9-5.3,10.8-15.6,10.8-20.9C36.5,6.5,30.4,0.5,23,0.5z M23,22.3c-4.4,0-8-3.6-8-8c0-4.4,3.6-8,8-8c4.4,0,8,3.6,8,8
				C31,18.7,27.4,22.3,23,22.3z"/>
			<path class="st0" d="M23,9.5c-2.7,0-4.8,2.2-4.8,4.8c0,2.7,2.2,4.8,4.8,4.8c2.7,0,4.8-2.2,4.8-4.8C27.8,11.7,25.7,9.5,23,9.5z"/>
		</g>
	</g>
</g>
</svg>
