<svg id="Livello_2" data-name="Livello 2" xmlns="http://www.w3.org/2000/svg" viewBox="0 0 29.84 28.1"><title>toggler-icon</title><path d="M4.57,24.51a4.34,4.34,0,0,1,2.26-4A6.57,6.57,0,0,0,10,17a8.31,8.31,0,0,1,.48-.94,4.33,4.33,0,0,1,3.66-2.41,6.06,6.06,0,0,1,3.46.55,4,4,0,0,1,1.66,1.67c.39.72.78,1.45,1.14,2.19A4.26,4.26,0,0,0,22,19.83c.46.29.92.57,1.37.87,2.62,1.73,2.42,5.59.51,7.37a3.5,3.5,0,0,1-3.69.76A6.54,6.54,0,0,1,18.41,28a6.23,6.23,0,0,0-5.2-.87,6,6,0,0,0-2,1A4.88,4.88,0,0,1,8.91,29,3.7,3.7,0,0,1,5,26.57,5.19,5.19,0,0,1,4.57,24.51Z" transform="translate(0 -0.95)"/><path d="M7,5.47a5.78,5.78,0,0,1,.91-3.42,2.33,2.33,0,0,1,3.49-.55A5,5,0,0,1,13,3.8a7,7,0,0,1,.15,5,4,4,0,0,1-.39.8,2.4,2.4,0,0,1-3.95.47A6.17,6.17,0,0,1,7.1,6.68C7,6.21,7,5.74,7,5.47Z" transform="translate(0 -0.95)"/><path d="M22.88,5.28a7.1,7.1,0,0,1-1,3.74,3.94,3.94,0,0,1-2,1.76,2.38,2.38,0,0,1-2.32-.53,4.22,4.22,0,0,1-1.19-2.52,7,7,0,0,1,1.42-5.58,3.77,3.77,0,0,1,.78-.71A2.3,2.3,0,0,1,21.93,2a5.31,5.31,0,0,1,.95,2.91C22.89,5,22.88,5.15,22.88,5.28Z" transform="translate(0 -0.95)"/><path d="M6.73,13.61a5.36,5.36,0,0,1-.65,2.67,2.36,2.36,0,0,1-3.68.77A5.69,5.69,0,0,1,.34,13.9,6.35,6.35,0,0,1,.49,9.38,2.45,2.45,0,0,1,2.92,7.74a3.12,3.12,0,0,1,2,1,6.68,6.68,0,0,1,1.76,3.76C6.69,12.89,6.7,13.25,6.73,13.61Z" transform="translate(0 -0.95)"/><path d="M23.14,13.35a7,7,0,0,1,1.54-4.24,4.88,4.88,0,0,1,.91-.85,2.35,2.35,0,0,1,3.62.83,5.28,5.28,0,0,1,.61,3.09,6.78,6.78,0,0,1-1.6,4.15,4.88,4.88,0,0,1-1.13.94,2.27,2.27,0,0,1-3.18-.77A5.37,5.37,0,0,1,23.14,13.35Z" transform="translate(0 -0.95)"/></svg>